<?xml version="1.0" standalone="no"?>
<!DOCTYPE svg PUBLIC "-//W3C//DTD SVG 20010904//EN" "http://www.w3.org/TR/2001/REC-SVG-20010904/DTD/svg10.dtd">
<svg xmlns="http://www.w3.org/2000/svg" version="1.0" width="256.000000pt" height="256.000000pt" viewBox="0 0 256.000000 256.000000" preserveAspectRatio="xMidYMid meet">
<metadata>
Created by potrace 1.16, written by Peter Selinger 2001-2019
<meta name="Producer" content="Online-Convert"/></metadata>
<g transform="translate(0.000000,256.000000) scale(0.100000,-0.100000)" fill="#000000" stroke="none">
<path d="M1128 2533 c-32 -2 -58 -7 -58 -12 0 -4 -40 -13 -90 -20 -49 -7 -90 -17 -90 -21 0 -5 -16 -12 -35 -16 -19 -3 -35 -10 -35 -14 0 -4 -22 -13 -50 -20 -27 -7 -50 -16 -50 -20 0 -4 -12 -13 -27 -19 -42 -17 -87 -45 -96 -58 -4 -7 -15 -13 -23 -13 -8 0 -22 -9 -31 -20 -10 -11 -21 -20 -25 -20 -4 0 -29 -22 -56 -50 -27 -27 -54 -50 -61 -50 -6 0 -14 -8 -18 -17 -3 -10 -26 -37 -50 -60 -23 -24 -43 -47 -43 -52 0 -6 -8 -16 -18 -23 -10 -7 -24 -28 -31 -45 -7 -18 -17 -33 -22 -33 -5 0 -9 -7 -9 -15 0 -9 -7 -18 -16 -22 -8 -3 -13 -12 -10 -19 3 -8 2 -14 -3 -14 -5 0 -12 -12 -15 -26 -4 -15 -14 -33 -21 -41 -8 -8 -15 -25 -15 -38 0 -13 -7 -30 -15 -38 -17 -17 -32 -97 -18 -97 5 0 17 24 28 53 97 275 306 508 569 633 42 20 79 34 82 31 3 -3 -25 -22 -62 -43 -37 -20 -101 -65 -143 -98 -253 -200 -422 -472 -482 -776 -14 -68 -18 -362 -6 -415 3 -16 4 -24 1 -17 -10 21 -24 13 -24 -14 0 -19 4 -25 15 -20 8 3 15 1 15 -4 0 -6 -4 -10 -10 -10 -5 0 -10 -9 -10 -20 0 -14 7 -20 23 -20 15 0 18 -3 9 -9 -9 -6 -11 -19 -7 -45 4 -20 10 -36 14 -36 4 0 12 -20 19 -45 7 -25 16 -45 21 -45 5 0 12 -14 16 -30 4 -17 11 -30 16 -30 6 0 7 -5 4 -10 -3 -6 1 -17 9 -26 9 -8 16 -22 16 -30 0 -8 5 -14 10 -14 6 0 15 -11 20 -25 11 -28 24 -46 57 -77 13 -12 23 -25 23 -30 0 -15 34 -48 50 -48 9 0 44 -30 79 -66 34 -36 65 -63 68 -61 3 3 15 -5 28 -19 12 -13 25 -24 29 -24 7 0 88 -51 96 -61 3 -3 22 -12 43 -20 20 -7 37 -17 37 -21 0 -4 9 -8 20 -8 36 0 23 36 -21 59 -15 7 -33 24 -40 37 -7 13 -18 24 -25 24 -17 0 -65 48 -83 82 -7 14 -24 31 -36 38 -13 7 -29 25 -35 41 -7 15 -18 30 -26 33 -8 3 -14 12 -14 20 0 7 -6 16 -14 19 -8 3 -17 19 -21 35 -3 17 -12 33 -20 35 -7 3 -16 19 -20 36 -4 17 -11 31 -15 31 -5 0 -15 18 -21 40 -7 22 -16 40 -20 40 -4 0 -10 18 -14 40 -4 22 -10 40 -15 40 -4 0 -6 9 -3 20 3 11 1 20 -5 20 -6 0 -14 21 -18 48 -4 26 -10 49 -15 52 -4 3 -13 64 -19 136 -12 132 -1 341 19 353 4 3 11 27 15 54 4 26 12 47 18 47 5 0 8 7 4 15 -3 8 -2 15 3 15 5 0 12 11 15 25 4 14 10 25 15 25 5 0 12 14 16 31 4 17 13 33 20 35 7 3 15 14 18 25 8 28 32 23 58 -12 13 -17 32 -39 41 -47 10 -9 18 -21 18 -28 0 -6 9 -19 20 -29 11 -10 20 -24 20 -32 0 -7 4 -13 10 -13 5 0 17 -15 25 -32 29 -61 46 -88 56 -88 5 0 9 -6 9 -14 0 -7 8 -24 18 -37 10 -13 25 -40 32 -59 8 -19 20 -39 27 -43 7 -4 13 -15 13 -22 0 -8 4 -15 8 -15 5 0 14 -18 21 -40 6 -22 16 -40 21 -40 4 0 11 -13 15 -30 4 -17 11 -30 16 -30 5 0 8 -3 8 -8 -2 -12 25 -72 32 -72 4 0 12 -22 19 -50 7 -27 16 -50 21 -50 4 0 11 -16 15 -35 3 -19 10 -35 16 -35 5 0 6 -4 3 -10 -3 -5 -2 -10 3 -10 5 0 12 -19 16 -42 4 -23 11 -45 16 -48 13 -8 31 -160 24 -208 -5 -34 -12 -46 -35 -58 -49 -25 -36 -38 34 -31 61 6 124 30 139 53 4 7 18 14 31 18 14 3 28 19 37 41 7 19 17 35 21 35 11 0 29 84 29 134 0 25 5 46 10 46 6 0 10 14 10 30 0 17 -4 30 -10 30 -5 0 -10 25 -10 55 0 76 -21 255 -30 255 -5 0 -11 32 -15 70 -4 39 -10 70 -15 70 -4 0 -5 11 -2 25 2 14 0 25 -6 25 -5 0 -13 29 -17 65 -3 36 -10 65 -14 65 -4 0 -14 46 -21 103 -7 56 -17 105 -21 108 -5 3 -12 40 -15 82 -4 42 -10 77 -13 77 -3 0 -5 34 -3 76 2 46 -1 81 -7 87 -14 14 -15 97 -1 97 6 0 10 23 10 52 0 63 19 178 30 178 4 0 13 20 20 45 7 25 17 45 21 45 5 0 9 5 9 12 0 6 25 35 55 64 30 29 55 57 55 63 0 11 -36 12 -162 4z"/>
<path d="M1770 2416 c0 -9 7 -19 16 -23 38 -15 234 -209 247 -245 4 -10 11 -18 17 -18 5 0 10 -5 10 -12 0 -6 7 -19 16 -29 17 -19 46 -67 66 -111 7 -16 15 -28 19 -28 4 0 13 -22 20 -50 7 -27 16 -50 20 -50 5 0 11 -16 15 -35 3 -19 10 -35 14 -35 5 0 6 -9 3 -20 -3 -11 -1 -20 5 -20 6 0 14 -21 18 -47 4 -27 10 -50 14 -53 18 -12 31 -257 19 -372 -6 -62 -14 -115 -19 -118 -4 -3 -10 -26 -14 -53 -4 -26 -12 -47 -17 -47 -6 0 -7 -4 -4 -10 3 -5 2 -10 -4 -10 -5 0 -12 -14 -16 -30 -4 -17 -10 -30 -15 -30 -5 0 -11 -14 -15 -31 -4 -17 -13 -33 -21 -36 -8 -3 -14 -12 -14 -19 0 -28 -29 -26 -60 2 -16 16 -30 34 -30 40 0 6 -9 19 -20 29 -11 10 -20 24 -20 30 0 7 -7 15 -15 19 -8 3 -15 12 -15 21 0 8 -5 15 -10 15 -6 0 -18 18 -27 40 -10 22 -21 40 -25 40 -5 0 -8 7 -8 15 0 9 -6 18 -14 21 -8 3 -18 18 -21 34 -3 16 -12 31 -20 33 -7 3 -16 19 -20 35 -3 17 -12 33 -20 35 -7 3 -16 19 -20 36 -4 17 -11 31 -15 31 -5 0 -15 18 -21 40 -7 22 -15 40 -19 40 -4 0 -13 18 -20 40 -7 22 -17 40 -21 40 -4 0 -10 14 -14 30 -4 17 -11 30 -15 30 -5 0 -15 18 -21 40 -7 22 -15 40 -19 40 -4 0 -11 16 -14 35 -4 19 -11 35 -16 35 -4 0 -6 9 -3 20 3 11 1 20 -5 20 -6 0 -13 18 -17 40 -4 22 -10 40 -14 40 -12 0 -34 174 -27 212 6 32 28 61 51 66 6 1 10 8 10 15 0 7 -17 13 -42 15 -24 2 -43 -1 -43 -6 0 -5 -18 -12 -40 -16 -22 -3 -40 -10 -40 -15 0 -5 -11 -12 -25 -15 -31 -8 -73 -50 -81 -81 -3 -14 -10 -25 -14 -25 -10 0 -30 -80 -30 -119 0 -17 -4 -31 -10 -31 -6 0 -10 -27 -10 -60 0 -33 4 -60 10 -60 6 0 10 -21 10 -46 0 -61 22 -238 30 -244 4 -3 13 -47 20 -97 7 -51 16 -93 21 -93 4 0 11 -29 14 -65 4 -36 10 -65 14 -65 7 0 31 -139 31 -182 0 -14 4 -28 10 -30 5 -1 13 -38 16 -80 4 -43 10 -78 13 -78 3 0 6 -83 6 -185 0 -102 -3 -185 -6 -185 -4 0 -9 -22 -13 -50 -4 -27 -11 -50 -15 -50 -5 0 -12 -15 -15 -34 -4 -18 -15 -44 -26 -56 -11 -13 -20 -27 -20 -32 0 -5 -23 -31 -50 -57 -28 -26 -50 -53 -50 -59 0 -8 22 -12 65 -12 36 0 65 4 65 8 0 4 48 13 107 20 59 7 110 17 113 22 3 4 22 11 43 15 20 4 37 11 37 15 0 4 25 13 55 20 30 7 55 16 55 20 0 3 17 12 38 19 20 8 39 17 42 20 8 10 89 61 96 61 4 0 17 11 29 24 13 14 25 22 28 20 3 -3 27 17 54 45 27 28 55 51 61 51 7 0 12 5 12 12 0 6 23 34 51 61 28 27 48 51 45 54 -2 3 6 15 20 28 13 12 24 25 24 29 0 7 51 88 61 96 3 3 12 22 20 43 7 20 16 37 20 37 4 0 10 15 14 32 4 18 13 42 20 54 8 12 17 39 21 60 4 21 10 41 15 44 10 7 29 121 29 173 0 20 5 37 10 37 6 0 10 50 10 130 0 80 -4 130 -10 130 -5 0 -10 18 -10 41 0 54 -21 179 -30 179 -4 0 -11 16 -14 35 -4 19 -13 47 -21 62 -8 15 -18 43 -21 61 -3 17 -10 32 -14 32 -5 0 -11 14 -15 30 -4 17 -11 30 -15 30 -5 0 -7 6 -4 14 3 7 -2 16 -10 19 -9 4 -16 13 -16 22 0 8 -5 15 -10 15 -6 0 -15 11 -20 25 -5 14 -13 25 -17 25 -5 0 -14 14 -21 30 -14 31 -220 243 -247 254 -8 3 -15 10 -15 15 0 5 -10 11 -23 15 -21 5 -37 15 -85 57 -7 6 -16 9 -19 5 -3 -3 -11 0 -19 7 -36 32 -46 38 -74 43 -24 5 -30 3 -30 -10z m690 -1286 c-51 -382 -283 -715 -614 -876 -110 -54 -159 -59 -66 -8 113 63 182 115 282 212 260 252 385 540 400 924 1 29 4 4 6 -57 1 -60 -2 -148 -8 -195z"/>
</g>
</svg>
