 <svg  version="1.0" xmlns="http://www.w3.org/2000/svg"  width="603.000000pt" height="540.000000pt" viewBox="0 0 603.000000 540.000000"  preserveAspectRatio="xMidYMid meet">  <g transform="translate(0.000000,540.000000) scale(0.100000,-0.100000)" fill="#ff1a75" stroke="none"> <path d="M2354 5391 c11 -17 -21 -28 -139 -45 -66 -10 -140 -24 -165 -31 -25 -7 -61 -16 -80 -20 -19 -3 -44 -10 -55 -14 -11 -5 -54 -19 -95 -31 -41 -13 -79 -27 -84 -31 -6 -5 -19 -9 -30 -9 -12 0 -30 -7 -40 -15 -11 -8 -26 -15 -34 -15 -15 0 -208 -93 -284 -138 -252 -146 -384 -247 -578 -442 -166 -167 -252 -274 -352 -435 -29 -47 -61 -98 -70 -113 -25 -40 -132 -258 -158 -322 -20 -51 -27 -68 -60 -160 -7 -19 -15 -48 -17 -65 -3 -16 -9 -34 -13 -40 -7 -10 -20 -65 -72 -305 -20 -96 -22 -136 -25 -465 -2 -197 0 -366 4 -375 6 -14 17 -63 42 -195 22 -118 110 -399 157 -504 53 -117 158 -326 166 -329 4 -2 8 -8 8 -13 0 -17 175 -268 236 -339 127 -147 164 -184 334 -332 108 -94 266 -206 390 -276 96 -55 305 -155 345 -165 11 -3 45 -15 75 -27 130 -50 320 -101 460 -123 42 -6 737 -11 1938 -13 l1872 -4 0 667 0 668 -1773 0 c-1682 0 -1776 1 -1857 18 -47 10 -101 25 -120 32 -19 7 -53 18 -75 25 -43 13 -120 45 -145 61 -8 5 -24 13 -35 18 -11 5 -37 21 -58 35 -21 14 -40 26 -43 26 -13 0 -126 94 -199 166 -69 68 -175 195 -175 209 0 2 -12 21 -26 42 -31 46 -124 228 -124 244 0 6 -6 25 -14 42 -31 75 -63 242 -72 382 -6 103 18 297 50 410 36 123 100 270 157 360 10 17 22 37 26 46 22 43 163 208 225 261 67 57 138 112 158 121 8 4 31 17 50 28 61 38 163 86 220 104 30 10 66 22 80 28 26 10 57 17 175 37 83 15 381 8 440 -10 22 -6 65 -18 95 -26 61 -17 121 -39 162 -60 14 -8 31 -14 37 -14 14 0 191 -107 217 -131 11 -10 24 -19 30 -19 22 -1 210 -192 269 -275 11 -16 27 -38 37 -49 16 -21 21 -21 723 -23 624 -1 707 0 712 14 3 8 -11 65 -32 126 -37 110 -57 159 -116 284 -16 35 -29 65 -29 69 0 21 -189 323 -254 406 -12 14 -32 41 -46 59 -92 122 -288 319 -436 438 -70 56 -272 188 -359 236 -38 20 -74 41 -80 45 -5 5 -66 31 -135 60 -69 28 -134 55 -145 60 -33 15 -107 41 -145 50 -19 5 -62 16 -95 25 -33 9 -82 21 -110 26 -27 5 -70 14 -95 19 -25 6 -71 13 -104 16 -45 6 -60 11 -64 26 -4 17 -21 18 -294 18 -166 0 -287 -4 -284 -9z"/> <path d="M3930 3041 c0 -6 10 -27 23 -48 20 -35 22 -53 26 -207 4 -207 -25 -427 -70 -531 -5 -11 -18 -46 -29 -77 -49 -134 -160 -308 -261 -410 -31 -31 -54 -59 -51 -62 7 -8 2392 -7 2430 0 l32 6 0 669 0 669 -1050 0 c-651 0 -1050 -4 -1050 -9z"/> </g> </svg> 