<svg xmlns="http://www.w3.org/2000/svg" viewBox="0 12.279999732971191 167.11000061035156 38.75" data-asc="1.00537109375"><g fill="#ffffff"><g fill="#ffffff" transform="translate(0, 0)"><path d="M32.40 47.58Q29.42 48.95 25.89 49.96Q22.36 50.98 19.07 50.98Q14.82 50.98 11.28 49.80Q7.74 48.63 5.25 46.29Q2.73 43.92 1.37 40.37Q0 36.82 0 32.06Q0 23.34 5.09 18.30Q10.18 13.26 19.07 13.26Q22.17 13.26 25.40 14.00Q28.64 14.75 32.37 16.53L32.37 22.27L31.93 22.27Q31.18 21.68 29.74 20.73Q28.30 19.78 26.90 19.14Q25.22 18.38 23.08 17.88Q20.95 17.38 18.24 17.38Q12.13 17.38 8.58 21.30Q5.03 25.22 5.03 31.91Q5.03 38.96 8.74 42.88Q12.45 46.80 18.85 46.80Q21.19 46.80 23.52 46.34Q25.85 45.87 27.61 45.14L27.61 36.23L17.87 36.23L17.87 31.98L32.40 31.98L32.40 47.58ZM45.41 18.43L40.23 18.43L40.23 13.67L45.41 13.67L45.41 18.43M45.12 50.27L40.53 50.27L40.53 23.00L45.12 23.00L45.12 50.27ZM68.36 50.02Q67.07 50.37 65.54 50.59Q64.01 50.81 62.82 50.81Q58.64 50.81 56.47 48.56Q54.30 46.31 54.30 41.36L54.30 26.86L51.20 26.86L51.20 23.00L54.30 23.00L54.30 15.16L58.89 15.16L58.89 23.00L68.36 23.00L68.36 26.86L58.89 26.86L58.89 39.28Q58.89 41.43 58.98 42.64Q59.08 43.85 59.67 44.90Q60.21 45.87 61.15 46.33Q62.08 46.78 64.01 46.78Q65.14 46.78 66.36 46.45Q67.58 46.12 68.12 45.90L68.36 45.90L68.36 50.02ZM102.08 50.27L97.24 50.27L97.24 32.47L79.10 32.47L79.10 50.27L74.27 50.27L74.27 13.92L79.10 13.92L79.10 28.17L97.24 28.17L97.24 13.92L102.08 13.92L102.08 50.27ZM134.08 50.27L129.49 50.27L129.49 47.24Q127.17 49.07 125.05 50.05Q122.92 51.03 120.36 51.03Q116.06 51.03 113.67 48.40Q111.28 45.78 111.28 40.70L111.28 23.00L115.87 23.00L115.87 38.53Q115.87 40.60 116.06 42.08Q116.26 43.55 116.89 44.60Q117.55 45.68 118.60 46.17Q119.65 46.66 121.66 46.66Q123.44 46.66 125.55 45.73Q127.66 44.80 129.49 43.36L129.49 23.00L134.08 23.00L134.08 50.27ZM167.11 36.43Q167.11 39.84 166.15 42.58Q165.19 45.31 163.55 47.17Q161.82 49.10 159.74 50.06Q157.67 51.03 155.18 51.03Q152.86 51.03 151.12 50.48Q149.39 49.93 147.71 49.00L147.41 50.27L143.12 50.27L143.12 12.28L147.71 12.28L147.71 25.85Q149.63 24.27 151.81 23.25Q153.98 22.24 156.69 22.24Q161.52 22.24 164.32 25.95Q167.11 29.66 167.11 36.43M162.38 36.55Q162.38 31.67 160.77 29.14Q159.16 26.61 155.57 26.61Q153.56 26.61 151.51 27.48Q149.46 28.34 147.71 29.71L147.71 45.34Q149.66 46.22 151.06 46.56Q152.47 46.90 154.25 46.90Q158.06 46.90 160.22 44.40Q162.38 41.89 162.38 36.55Z"/></g></g></svg>