 <svg  version="1.0" xmlns="http://www.w3.org/2000/svg"  width="300.000000pt" height="300.000000pt" viewBox="0 0 300.000000 300.000000"  preserveAspectRatio="xMidYMid meet">  <g transform="translate(0.000000,300.000000) scale(0.100000,-0.100000)" fill="#ffffff" stroke="none"> <path d="M1355 2993 c-535 -64 -965 -362 -1200 -831 -105 -211 -150 -412 -150 -667 1 -261 45 -446 160 -673 316 -622 1021 -945 1696 -777 127 32 209 64 339 131 401 208 687 598 777 1059 25 128 24 396 -1 530 -135 721 -763 1242 -1486 1233 -58 0 -118 -3 -135 -5z m335 -253 c166 -24 378 -109 527 -212 208 -144 392 -394 471 -638 45 -142 56 -218 56 -390 0 -172 -11 -248 -56 -390 -77 -241 -258 -488 -461 -631 -121 -85 -330 -183 -367 -171 -8 2 -23 11 -32 20 -16 13 -18 37 -18 223 0 229 -8 286 -49 350 l-27 44 85 17 c224 43 369 148 430 314 25 67 51 208 51 278 -1 112 -44 242 -105 314 -24 28 -25 35 -16 69 16 58 13 191 -7 248 l-17 50 -43 -2 c-61 -3 -125 -26 -217 -79 l-80 -45 -90 17 c-121 23 -330 23 -452 0 -91 -18 -92 -18 -121 3 -81 57 -259 122 -297 107 -37 -14 -60 -229 -34 -304 10 -28 8 -35 -16 -63 -39 -47 -73 -120 -91 -196 -30 -127 0 -338 64 -458 67 -123 213 -218 387 -251 50 -10 91 -18 93 -19 1 -1 -11 -28 -28 -60 -16 -31 -30 -68 -30 -81 0 -27 -22 -39 -106 -56 -41 -8 -63 -7 -107 6 -67 20 -104 49 -158 127 -64 91 -156 142 -224 125 -33 -8 -32 -23 7 -55 76 -64 112 -109 150 -187 46 -97 93 -143 177 -175 47 -18 71 -20 154 -17 l97 5 0 -117 c0 -121 -5 -138 -50 -152 -21 -7 -101 22 -205 75 -342 172 -573 477 -662 872 -25 111 -25 377 0 490 57 256 169 464 342 639 182 183 414 305 664 350 89 17 318 20 411 6z"/> </g> </svg> 