<?xml version="1.0" standalone="no"?>
<!DOCTYPE svg PUBLIC "-//W3C//DTD SVG 20010904//EN"
 "http://www.w3.org/TR/2001/REC-SVG-20010904/DTD/svg10.dtd">
<svg version="1.0" xmlns="http://www.w3.org/2000/svg"
 width="225.000000pt" height="144.000000pt" viewBox="0 0 225.000000 144.000000"
 preserveAspectRatio="xMidYMid meet">
<metadata>
Created by potrace 1.10, written by Peter Selinger 2001-2011
</metadata>
<g transform="translate(0.000000,144.000000) scale(0.100000,-0.100000)"
fill="#ffffff" stroke="none">
<path d="M1334 1300 c-50 -16 -126 -71 -156 -115 -16 -23 -37 -76 -49 -124
-27 -113 -57 -168 -123 -228 -118 -108 -256 -136 -401 -82 -27 11 -53 19 -57
19 -5 0 -8 -142 -8 -315 l0 -315 290 0 290 0 0 223 c0 122 5 238 10 258 12 42
52 82 99 98 19 6 84 11 145 11 96 0 118 3 162 24 223 104 229 412 10 523 -56
29 -158 39 -212 23z"/>
</g>
</svg>
