 <svg  version="1.0" xmlns="http://www.w3.org/2000/svg"  width="300.000000pt" height="264.000000pt" viewBox="0 0 300.000000 264.000000"  preserveAspectRatio="xMidYMid meet">  <g transform="translate(0.000000,264.000000) scale(0.100000,-0.100000)" fill="#8652c7" stroke="none"> <path d="M1415 2623 c-67 -24 -109 -55 -143 -106 -32 -46 -389 -658 -397 -680 -4 -8 5 -18 22 -26 15 -7 66 -35 113 -63 427 -256 749 -698 869 -1191 25 -101 51 -263 51 -314 0 -10 -34 -13 -138 -13 l-137 0 -22 135 c-81 501 -381 929 -832 1184 -41 23 -75 40 -76 39 -1 -2 -80 -138 -175 -303 -95 -165 -177 -305 -182 -312 -7 -8 6 -20 44 -39 118 -60 270 -193 345 -304 68 -101 130 -249 148 -358 l7 -42 -325 0 c-301 0 -325 1 -340 18 -10 10 -17 23 -17 27 0 5 41 78 91 162 90 150 91 154 74 174 -17 18 -175 103 -180 97 -1 -2 -47 -79 -101 -173 l-99 -170 0 -85 c0 -72 4 -93 26 -135 14 -28 44 -64 67 -82 80 -61 98 -63 594 -63 l448 0 0 99 c0 180 -52 386 -139 547 -71 131 -212 297 -315 370 l-29 21 68 119 c37 65 69 121 71 123 11 13 203 -161 291 -264 204 -240 333 -591 333 -911 l0 -104 365 0 365 0 0 133 c0 577 -271 1177 -703 1559 -83 73 -227 186 -263 206 -15 8 3 44 128 258 166 284 172 290 226 212 51 -75 433 -725 842 -1433 73 -126 189 -325 257 -442 69 -117 123 -220 121 -230 -6 -34 -47 -43 -190 -43 l-138 0 0 -110 0 -110 165 0 c140 0 172 3 218 20 121 45 201 195 168 316 -11 43 -1232 2144 -1280 2204 -64 79 -199 117 -296 83z"/> </g> </svg> 