 <svg  version="1.0" xmlns="http://www.w3.org/2000/svg"  width="300.000000pt" height="300.000000pt" viewBox="0 0 300.000000 300.000000"  preserveAspectRatio="xMidYMid meet">  <g transform="translate(0.000000,300.000000) scale(0.100000,-0.100000)" fill="#474747" stroke="none"> <path d="M1235 2975 c-327 -71 -567 -197 -781 -410 -126 -125 -181 -197 -258 -334 -129 -229 -195 -481 -196 -735 0 -140 6 -186 51 -370 137 -558 587 -983 1174 -1105 139 -29 410 -30 546 -1 207 44 347 96 492 183 360 217 612 561 701 957 10 41 21 91 27 111 5 20 9 120 9 222 0 168 -3 197 -29 314 -68 300 -182 512 -394 729 -139 144 -249 225 -412 305 -226 110 -388 149 -645 154 -155 4 -187 1 -285 -20z m653 -1361 c200 -350 361 -638 359 -640 -2 -2 -333 -3 -735 -2 l-730 3 219 385 c402 703 511 890 517 890 4 0 170 -286 370 -636z"/> </g> </svg> 