<svg version="1.1" id="Layer_1" xmlns="http://www.w3.org/2000/svg" xmlns:xlink="http://www.w3.org/1999/xlink" x="0px" y="0px"
	 width="100%" viewBox="0 0 1046 1046" enable-background="new 0 0 1046 1046" xml:space="preserve">
<path fill="#1F0256" opacity="1.000000" stroke="none" 
	d="
M360.855927,770.018066 
	C370.678345,770.788879 377.816040,776.723206 385.604187,780.962891 
	C406.902985,792.557434 429.359314,801.039490 452.810547,806.935608 
	C470.851868,811.471497 489.154816,813.982666 507.787109,815.197754 
	C550.150024,817.960205 590.844299,810.800842 630.115356,795.596008 
	C644.917297,789.864990 658.996216,782.090393 672.970703,774.453125 
	C684.721313,768.031250 696.340393,768.843384 705.732300,778.234375 
	C746.145142,818.643250 786.316956,859.297974 827.122192,899.306580 
	C838.197754,910.165955 837.965515,930.597534 823.885376,939.420349 
	C804.059021,951.843567 784.392578,964.559875 764.144714,976.263306 
	C738.164551,991.280090 710.285034,1002.215210 681.811890,1011.501831 
	C654.167358,1020.518188 625.866211,1026.743530 597.095032,1031.193848 
	C563.902161,1036.328003 530.519897,1036.997559 497.168427,1035.691772 
	C476.217743,1034.871460 455.287170,1031.722900 434.518402,1028.513550 
	C406.409149,1024.169800 379.065186,1016.446289 352.276459,1006.907166 
	C321.519043,995.954956 291.845245,982.589294 263.970062,965.508362 
	C250.670990,957.359131 237.661377,948.726685 224.672287,940.085205 
	C209.568939,930.037048 207.329529,912.404602 220.050110,899.578186 
	C260.410309,858.882446 301.006653,818.420410 341.624054,777.980835 
	C346.688904,772.938171 353.050812,770.053772 360.855927,770.018066 
z"/>
<path fill="#1F0256" opacity="1.000000" stroke="none" 
	d="
M377.000427,523.013306 
	C377.775543,489.266510 387.711975,459.126740 408.551849,433.057587 
	C432.433350,403.183594 463.187103,384.766144 501.265533,378.877045 
	C537.830750,373.221924 571.666138,380.454651 602.722351,400.249634 
	C639.541077,423.717621 661.916077,457.474152 668.551636,500.328888 
	C675.095337,542.590576 665.273315,581.423157 638.229187,615.405762 
	C620.432678,637.768127 597.854370,653.224609 571.188721,662.700073 
	C550.363464,670.100220 528.756897,671.432068 506.802399,669.244690 
	C490.898926,667.660156 475.645355,663.647766 461.528137,656.469971 
	C450.937073,651.085083 440.677795,644.681091 431.249695,637.453796 
	C412.991577,623.457703 399.797028,605.181091 390.171204,584.346680 
	C383.285217,569.442383 379.119934,553.802490 377.985504,537.390198 
	C377.665436,532.760010 377.329224,528.130981 377.000427,523.013306 
z"/>
<path fill="#7337FF" opacity="1.000000" stroke="none" 
	d="
M16.167114,457.002258 
	C17.263577,449.360443 18.300339,441.709351 19.477116,434.079895 
	C20.286404,428.833008 21.289944,423.616119 22.916739,418.201111 
	C26.055115,419.632599 28.740973,420.971283 30.851143,422.930145 
	C33.987671,425.841736 36.587307,429.323608 39.641960,432.332855 
	C53.822651,446.302704 68.143288,460.130829 82.288719,474.136017 
	C90.593712,482.358704 98.648727,490.833435 106.844833,499.166626 
	C115.674652,508.144196 124.558731,517.068481 133.377182,526.057129 
	C137.410614,530.168335 141.139862,534.599487 145.369781,538.491394 
	C151.797638,544.405640 158.853271,549.658997 165.074799,555.770752 
	C173.593307,564.138916 181.527313,573.099060 189.808914,581.712158 
	C199.098328,591.373474 208.466766,600.959351 217.859390,610.520569 
	C222.356567,615.098511 226.995453,619.537048 231.557510,624.051514 
	C234.847656,627.307312 237.980850,630.736267 241.425415,633.818298 
	C247.558411,639.305969 253.874176,644.589355 260.113495,649.958191 
	C265.407196,660.141113 271.340851,670.054382 275.782288,680.596375 
	C279.048737,688.349365 277.601532,696.375488 271.589874,702.989868 
	C271.172180,703.449402 271.011200,704.142334 270.018616,704.874634 
	C267.543915,704.339905 265.414581,704.069214 264.092590,702.891907 
	C261.005127,700.142517 258.310944,696.952454 255.447952,693.949951 
	C243.761505,681.694092 232.204803,669.310791 220.340897,657.229065 
	C210.706955,647.418274 200.670776,638.003418 190.888016,628.337036 
	C188.769180,626.243408 187.151276,623.635254 184.994064,621.589417 
	C175.078629,612.185913 164.850616,603.103210 155.137558,593.498108 
	C148.322006,586.758301 142.453979,579.059875 135.634171,572.324829 
	C122.646339,559.498352 109.146523,547.191162 96.116531,534.406128 
	C86.791046,525.255981 77.928734,515.635376 68.764801,506.318054 
	C65.976257,503.482849 62.728401,501.099426 59.939484,498.264557 
	C52.258217,490.456543 44.732117,482.496155 37.097088,474.642273 
	C33.175068,470.607849 29.334858,466.462311 25.107075,462.768188 
	C22.464899,460.459625 19.169428,458.898712 16.167114,457.002258 
z"/>
<path fill="#5347FF" opacity="1.000000" stroke="none" 
	d="
M95.883087,242.960281 
	C101.703331,234.359818 107.379364,225.656769 113.397186,217.196854 
	C117.084946,212.012558 121.296700,207.201004 125.878433,202.258301 
	C128.918869,204.293106 131.536453,206.108170 133.760315,208.319260 
	C151.727722,226.183426 169.684937,244.058807 187.516815,262.058014 
	C201.623734,276.297333 215.470688,290.794312 229.588654,305.022491 
	C236.475708,311.963318 243.775101,318.493042 250.782104,325.317413 
	C257.070496,331.441956 263.380341,337.559998 269.367035,343.973694 
	C273.851837,348.778320 277.838318,354.048096 282.046661,359.110779 
	C275.843536,370.086334 269.609131,381.044373 263.456085,392.047943 
	C261.572937,395.415649 259.913147,398.908325 257.639221,402.645325 
	C255.182083,401.277222 253.148148,399.699341 251.306259,397.922424 
	C241.547012,388.507324 231.696014,379.181335 222.139420,369.563507 
	C205.652206,352.970673 189.380493,336.163940 172.959518,319.504944 
	C170.520798,317.030884 167.610352,315.021301 165.176483,312.543121 
	C155.550339,302.741455 146.157410,292.708099 136.431030,283.008301 
	C125.406036,272.013397 114.098099,261.302643 102.956230,250.424225 
	C100.505531,248.031479 98.236031,245.453156 95.883087,242.960281 
z"/>
<path fill="#24AFFD" opacity="1.000000" stroke="none" 
	d="
M795.041870,180.116669 
	C785.934265,189.341614 776.826721,198.566559 767.120667,207.748718 
	C751.289307,192.905762 735.921814,178.240860 720.864380,163.264252 
	C707.926697,150.395950 695.386597,137.128738 682.574341,124.132896 
	C679.078918,120.587372 675.081116,117.537155 671.585632,113.991699 
	C664.954529,107.265900 658.614136,100.253510 651.982483,93.528358 
	C640.926392,82.316513 629.772766,71.200150 618.586365,60.118031 
	C613.280640,54.861736 607.738220,49.844582 602.421631,44.598930 
	C594.756714,37.036392 587.339355,29.216644 579.515137,21.825523 
	C577.033447,19.481215 575.523132,17.492788 577.001099,14.165118 
	C583.409119,15.108882 589.838501,15.928023 596.220764,17.021986 
	C610.090515,19.399342 623.951416,21.835892 637.783142,24.423294 
	C642.338928,25.275507 646.793945,26.666122 651.654785,28.358934 
	C652.727844,30.533642 653.069275,32.509254 654.215149,33.729294 
	C661.350220,41.325939 668.568176,48.850853 675.945007,56.212887 
	C685.678772,65.927216 695.615112,75.438263 705.406555,85.095345 
	C714.588440,94.151222 723.667664,103.311119 732.846863,112.369698 
	C737.081848,116.548981 741.592285,120.456291 745.718933,124.736488 
	C751.456299,130.687393 756.766296,137.055939 762.592590,142.914200 
	C770.969727,151.337448 779.908020,159.215363 788.064270,167.839203 
	C791.218262,171.174042 796.451355,173.944992 795.041870,180.116669 
z"/>
<path fill="#28A6FD" opacity="1.000000" stroke="none" 
	d="
M576.551880,14.091331 
	C575.523132,17.492788 577.033447,19.481215 579.515137,21.825523 
	C587.339355,29.216644 594.756714,37.036392 602.421631,44.598930 
	C607.738220,49.844582 613.280640,54.861736 618.586365,60.118031 
	C629.772766,71.200150 640.926392,82.316513 651.982483,93.528358 
	C658.614136,100.253510 664.954529,107.265900 671.585632,113.991699 
	C675.081116,117.537155 679.078918,120.587372 682.574341,124.132896 
	C695.386597,137.128738 707.926697,150.395950 720.864380,163.264252 
	C735.921814,178.240860 751.289307,192.905762 766.814697,207.878693 
	C758.644653,216.631516 750.182251,225.211563 741.119385,233.745239 
	C730.284424,223.277649 720.145996,212.759796 709.789551,202.461182 
	C698.421326,191.156448 686.745911,180.160080 675.404053,168.829453 
	C666.253113,159.687592 657.517944,150.129807 648.377869,140.976639 
	C640.175354,132.762482 631.592529,124.929398 623.322021,116.781570 
	C612.547424,106.166878 601.916809,95.406021 591.221619,84.710732 
	C581.273315,74.762306 571.320679,64.818275 561.371582,54.870655 
	C548.609619,42.110584 535.830750,29.367289 523.117493,16.558825 
	C521.869995,15.301996 521.030518,13.640213 520.001709,12.166380 
	C535.303040,12.444948 550.605469,12.674675 565.904724,13.039833 
	C569.309875,13.121106 572.703613,13.679064 576.551880,14.091331 
z"/>
<path fill="#4467FE" opacity="1.000000" stroke="none" 
	d="
M392.041443,263.115631 
	C379.440033,270.806183 366.838654,278.496765 353.661133,286.166382 
	C351.251190,284.457367 349.348755,282.837524 347.593750,281.071167 
	C315.703918,248.975494 283.885132,216.809006 251.932556,184.775970 
	C236.803497,169.608826 221.406113,154.709625 206.176758,139.642059 
	C202.998169,136.497223 200.024185,133.145569 196.955917,129.889221 
	C206.435837,122.335320 215.899475,114.760826 225.407532,107.242508 
	C227.683899,105.442520 230.108154,103.829582 233.190659,102.373642 
	C235.301422,103.502647 236.902206,104.172310 238.037537,105.307480 
	C252.093781,119.361694 266.069031,133.496857 280.092560,147.583862 
	C290.160583,157.697433 300.249176,167.790741 310.366150,177.855331 
	C321.636627,189.067520 332.985016,200.201553 344.232635,211.436554 
	C352.793884,219.988220 361.182617,228.713165 369.779144,237.228745 
	C375.059814,242.459717 380.878143,247.175140 385.886322,252.642990 
	C388.561127,255.563202 390.028931,259.588867 392.041443,263.115631 
z"/>
<path fill="#3290FD" opacity="1.000000" stroke="none" 
	d="
M381.957245,31.885994 
	C393.678314,28.918369 405.399353,25.950747 417.686035,23.248814 
	C419.786469,25.461618 421.135864,27.596981 422.888306,29.323154 
	C430.327179,36.650417 437.963318,43.777935 445.377655,51.129436 
	C452.184418,57.878555 458.762421,64.857796 465.509918,71.667549 
	C471.324036,77.535316 477.267395,83.274834 483.093323,89.131058 
	C488.349823,94.414879 493.449463,99.856155 498.755249,105.089088 
	C504.765808,111.017189 511.038025,116.681831 516.999023,122.657928 
	C525.086121,130.765488 532.899597,139.146088 540.989563,147.250793 
	C549.423157,155.699753 558.137390,163.868729 566.560730,172.327637 
	C575.569214,181.374146 584.262451,190.735748 593.311340,199.740662 
	C603.167725,209.549179 613.328186,219.051437 623.255676,228.789551 
	C631.291443,236.672073 639.254089,244.632767 647.094177,252.709320 
	C650.261780,255.972504 653.017151,259.635956 655.960083,263.117249 
	C639.410522,256.644379 622.944153,249.945648 606.271606,243.806778 
	C599.338013,241.253830 591.964722,239.895233 584.316406,237.589417 
	C577.026978,229.993073 570.340698,222.673782 563.366760,215.639648 
	C553.912537,206.103699 544.142029,196.881317 534.690918,187.342377 
	C528.168579,180.759430 522.136536,173.688110 515.568481,167.153625 
	C503.124146,154.772964 490.355103,142.718842 477.903442,130.345444 
	C466.634796,119.147636 455.683624,107.630890 444.454468,96.392700 
	C434.365204,86.295387 424.055237,76.419090 413.904510,66.382675 
	C405.423248,57.996918 396.930145,49.618172 388.659912,41.026855 
	C386.062927,38.329090 384.171570,34.952099 381.957245,31.885994 
z"/>
<path fill="#5F32FF" opacity="1.000000" stroke="none" 
	d="
M43.882111,345.960419 
	C46.786362,338.259888 49.602745,330.524658 52.625214,322.870819 
	C54.703342,317.608337 57.067444,312.458771 59.856041,307.328766 
	C69.148125,315.975220 77.908066,324.531281 86.622757,333.133148 
	C98.410042,344.767822 110.207397,356.392914 121.917679,368.104828 
	C134.099915,380.288788 146.157227,392.597565 158.317215,404.803894 
	C173.166794,419.710052 188.066376,434.566437 202.944351,449.444366 
	C211.983688,458.483643 220.995407,467.550903 230.091873,476.532288 
	C231.469986,477.893005 233.242218,478.854553 234.832153,480.000732 
	C233.935898,488.240997 232.704803,496.462250 232.236664,504.726776 
	C231.759354,513.153442 232.032120,521.622681 231.581635,530.457275 
	C229.771423,529.707642 228.212814,528.711975 226.964951,527.416931 
	C220.978485,521.204224 215.194870,514.792175 209.108093,508.681122 
	C203.733551,503.285126 197.953659,498.294678 192.530502,492.944946 
	C181.501038,482.064911 170.533569,471.120392 159.651733,460.092773 
	C151.627106,451.960632 143.818237,443.615967 135.836304,435.441132 
	C131.442780,430.941437 126.919182,426.567169 122.402382,422.189850 
	C116.094261,416.076569 109.560272,410.185120 103.453171,403.878906 
	C97.677628,397.915161 92.589622,391.278442 86.736076,385.398804 
	C75.517471,374.130188 64.036308,363.119293 52.508831,352.164795 
	C49.965069,349.747498 46.774719,348.010620 43.882111,345.960419 
z"/>
<path fill="#7B39FF" opacity="1.000000" stroke="none" 
	d="
M16.095779,457.423584 
	C19.169428,458.898712 22.464899,460.459625 25.107075,462.768188 
	C29.334858,466.462311 33.175068,470.607849 37.097088,474.642273 
	C44.732117,482.496155 52.258217,490.456543 59.939484,498.264557 
	C62.728401,501.099426 65.976257,503.482849 68.764801,506.318054 
	C77.928734,515.635376 86.791046,525.255981 96.116531,534.406128 
	C109.146523,547.191162 122.646339,559.498352 135.634171,572.324829 
	C142.453979,579.059875 148.322006,586.758301 155.137558,593.498108 
	C164.850616,603.103210 175.078629,612.185913 184.994064,621.589417 
	C187.151276,623.635254 188.769180,626.243408 190.888016,628.337036 
	C200.670776,638.003418 210.706955,647.418274 220.340897,657.229065 
	C232.204803,669.310791 243.761505,681.694092 255.447952,693.949951 
	C258.310944,696.952454 261.005127,700.142517 264.092590,702.891907 
	C265.414581,704.069214 267.543915,704.339905 269.710449,705.031982 
	C263.984528,711.288757 257.854553,717.536011 251.016357,723.903076 
	C243.551926,724.010864 241.148132,718.083618 237.229111,714.287292 
	C231.387085,708.628235 225.787613,702.719421 219.983948,697.019775 
	C214.214828,691.354065 208.192078,685.942383 202.515533,680.187622 
	C196.011932,673.594299 189.888870,666.625366 183.376984,660.040527 
	C176.194702,652.777893 168.693359,645.831726 161.455780,638.622437 
	C156.414597,633.600952 151.684952,628.265930 146.625931,623.263306 
	C142.763611,619.444031 138.584122,615.947083 134.581299,612.268066 
	C131.529938,609.463440 128.374451,606.747437 125.551529,603.724731 
	C121.370827,599.248047 117.674034,594.305176 113.358009,589.972351 
	C105.654869,582.239197 97.556442,574.901245 89.791039,567.228333 
	C84.713608,562.211304 80.063927,556.761292 74.987343,551.743347 
	C66.878067,543.727844 58.558132,535.925781 50.356033,528.003662 
	C44.398037,522.249084 38.428387,516.504456 32.573124,510.646301 
	C28.129347,506.200287 23.932436,501.507019 19.473978,497.076416 
	C17.570852,495.185181 15.281487,493.682587 13.167639,492.003387 
	C14.119909,480.617218 15.072176,469.231079 16.095779,457.423584 
z"/>
<path fill="#8A3EFF" opacity="1.000000" stroke="none" 
	d="
M213.880676,760.375732 
	C211.825989,762.844177 209.969101,765.516479 207.677094,767.740356 
	C202.225464,773.029724 196.568085,778.106934 190.500641,783.635742 
	C185.996094,784.582947 182.994446,783.015442 180.414413,779.962219 
	C178.278275,777.434265 175.716034,775.270691 173.400040,772.889709 
	C162.503235,761.686707 151.753311,750.337341 140.705780,739.285339 
	C130.037216,728.612305 118.980408,718.328125 108.266472,707.699402 
	C102.014275,701.497009 96.220726,694.833618 90.003448,688.594238 
	C82.159760,680.722778 74.033958,673.133118 66.149651,665.301208 
	C62.047794,661.226562 58.291435,656.805542 54.221237,652.697205 
	C48.765144,647.190002 43.340580,641.627319 37.556850,636.476501 
	C32.584908,632.048584 27.128033,628.165161 21.885597,624.040955 
	C20.273163,616.332520 18.250628,608.682495 17.143446,600.902161 
	C15.440761,588.937073 14.366584,576.882568 13.434486,564.508545 
	C16.694876,566.301758 19.599728,568.386414 22.378210,570.627808 
	C24.046722,571.973816 25.518909,573.563232 27.077915,575.044800 
	C34.011475,581.633972 41.122704,588.048218 47.831150,594.859192 
	C55.638512,602.785828 62.895981,611.256348 70.746948,619.137329 
	C82.538170,630.973572 94.760559,642.379822 106.572456,654.196045 
	C118.527092,666.154968 130.079193,678.516479 142.039993,690.469116 
	C154.099457,702.520325 166.474197,714.255432 178.652817,726.188293 
	C185.388779,732.788269 191.944473,739.572571 198.696808,746.155457 
	C203.661087,750.995056 208.812607,755.642578 213.880676,760.375732 
z"/>
<path fill="#1FBBFD" opacity="1.000000" stroke="none" 
	d="
M795.351074,179.980225 
	C796.451355,173.944992 791.218262,171.174042 788.064270,167.839203 
	C779.908020,159.215363 770.969727,151.337448 762.592590,142.914200 
	C756.766296,137.055939 751.456299,130.687393 745.718933,124.736488 
	C741.592285,120.456291 737.081848,116.548981 732.846863,112.369698 
	C723.667664,103.311119 714.588440,94.151222 705.406555,85.095345 
	C695.615112,75.438263 685.678772,65.927216 675.945007,56.212887 
	C668.568176,48.850853 661.350220,41.325939 654.215149,33.729294 
	C653.069275,32.509254 652.727844,30.533642 652.008911,28.537052 
	C662.714844,31.128551 673.761719,33.225990 684.070129,37.226318 
	C707.853577,46.455826 731.681885,55.752903 754.741516,66.615585 
	C780.419373,78.711639 804.518555,93.843658 827.076843,111.141335 
	C836.244202,118.170868 838.354065,132.530685 831.241638,143.007935 
	C827.576416,148.407227 822.486816,152.868240 817.870972,157.587006 
	C810.542175,165.079147 803.071106,172.432022 795.351074,179.980225 
z"/>
<path fill="#3689FE" opacity="1.000000" stroke="none" 
	d="
M381.556610,31.934830 
	C384.171570,34.952099 386.062927,38.329090 388.659912,41.026855 
	C396.930145,49.618172 405.423248,57.996918 413.904510,66.382675 
	C424.055237,76.419090 434.365204,86.295387 444.454468,96.392700 
	C455.683624,107.630890 466.634796,119.147636 477.903442,130.345444 
	C490.355103,142.718842 503.124146,154.772964 515.568481,167.153625 
	C522.136536,173.688110 528.168579,180.759430 534.690918,187.342377 
	C544.142029,196.881317 553.912537,206.103699 563.366760,215.639648 
	C570.340698,222.673782 577.026978,229.993073 583.921875,237.509247 
	C575.160645,236.546326 566.345459,235.020554 557.470093,234.039978 
	C548.653442,233.065887 539.776306,232.640167 530.439209,231.545532 
	C529.178711,229.496185 528.740112,227.562454 527.571411,226.309753 
	C523.065369,221.479752 518.388855,216.803085 513.660767,212.187195 
	C503.328674,202.100357 492.890625,192.121994 482.569061,182.024536 
	C478.071899,177.625046 473.765289,173.031250 469.353577,168.543915 
	C458.899506,157.910599 448.464325,147.258362 437.959717,136.675156 
	C433.422394,132.103958 428.669922,127.746483 424.127930,123.179802 
	C418.864960,117.888168 413.783569,112.415886 408.518494,107.126404 
	C401.980072,100.557739 395.291931,94.138206 388.744965,87.577888 
	C379.716095,78.530663 370.733124,69.437248 361.780579,60.314445 
	C356.455444,54.888058 351.226440,49.367325 345.954224,43.889000 
	C356.277405,40.259075 366.595215,36.613697 376.930267,33.017899 
	C378.293732,32.543510 379.745239,32.322186 381.556610,31.934830 
z"/>
<path fill="#4B5AFE" opacity="1.000000" stroke="none" 
	d="
M153.953278,169.888992 
	C163.726883,160.332703 173.500473,150.776413 183.876770,141.259354 
	C185.233170,141.949158 186.044495,142.544281 186.732193,143.258438 
	C203.077377,160.232346 219.313354,177.312851 235.786224,194.161774 
	C243.420074,201.969894 251.592957,209.247940 259.374115,216.915848 
	C270.272064,227.655197 281.032532,238.534103 291.851746,249.353363 
	C306.274506,263.776215 320.704987,278.191345 335.107574,292.634338 
	C336.508118,294.038818 337.736053,295.615448 339.044128,297.112122 
	C329.601227,306.003021 320.158325,314.893890 310.087189,323.770020 
	C304.109589,319.351685 298.424835,315.292206 293.480865,310.472748 
	C283.287018,300.535553 273.594482,290.086365 263.504852,280.039429 
	C243.619003,260.237823 223.527924,240.642075 203.666245,220.816406 
	C189.320145,206.496338 175.197006,191.952682 161.000854,177.482819 
	C158.583282,175.018631 156.299088,172.423584 153.953278,169.888992 
z"/>
<path fill="#4E52FF" opacity="1.000000" stroke="none" 
	d="
M153.645096,170.026337 
	C156.299088,172.423584 158.583282,175.018631 161.000854,177.482819 
	C175.197006,191.952682 189.320145,206.496338 203.666245,220.816406 
	C223.527924,240.642075 243.619003,260.237823 263.504852,280.039429 
	C273.594482,290.086365 283.287018,300.535553 293.480865,310.472748 
	C298.424835,315.292206 304.109589,319.351685 309.782410,323.902069 
	C306.971344,327.964813 303.809967,331.859589 300.707947,335.801117 
	C294.680328,343.460052 288.686096,351.145172 282.362335,358.965118 
	C277.838318,354.048096 273.851837,348.778320 269.367035,343.973694 
	C263.380341,337.559998 257.070496,331.441956 250.782104,325.317413 
	C243.775101,318.493042 236.475708,311.963318 229.588654,305.022491 
	C215.470688,290.794312 201.623734,276.297333 187.516815,262.058014 
	C169.684937,244.058807 151.727722,226.183426 133.760315,208.319260 
	C131.536453,206.108170 128.918869,204.293106 126.187302,202.123016 
	C129.748734,196.976349 133.393295,191.815674 137.518845,187.073425 
	C142.581451,181.254074 148.046082,175.784470 153.645096,170.026337 
z"/>
<path fill="#2F97FD" opacity="1.000000" stroke="none" 
	d="
M656.124146,263.430542 
	C653.017151,259.635956 650.261780,255.972504 647.094177,252.709320 
	C639.254089,244.632767 631.291443,236.672073 623.255676,228.789551 
	C613.328186,219.051437 603.167725,209.549179 593.311340,199.740662 
	C584.262451,190.735748 575.569214,181.374146 566.560730,172.327637 
	C558.137390,163.868729 549.423157,155.699753 540.989563,147.250793 
	C532.899597,139.146088 525.086121,130.765488 516.999023,122.657928 
	C511.038025,116.681831 504.765808,111.017189 498.755249,105.089088 
	C493.449463,99.856155 488.349823,94.414879 483.093323,89.131058 
	C477.267395,83.274834 471.324036,77.535316 465.509918,71.667549 
	C458.762421,64.857796 452.184418,57.878555 445.377655,51.129436 
	C437.963318,43.777935 430.327179,36.650417 422.888306,29.323154 
	C421.135864,27.596981 419.786469,25.461618 418.102051,23.202576 
	C426.291229,21.260303 434.631165,19.635866 442.967651,17.993883 
	C444.381104,17.715492 445.779694,17.361731 447.674072,17.428486 
	C451.394562,21.328705 454.483643,24.988468 457.886871,28.328131 
	C465.467041,35.766796 473.353546,42.896938 480.842621,50.424049 
	C492.058990,61.697350 502.973267,73.270691 514.142456,84.591690 
	C524.757935,95.351402 535.550903,105.935776 546.238159,116.624931 
	C558.658936,129.047897 571.043945,141.506546 583.454956,153.939301 
	C594.687866,165.191925 605.888672,176.477005 617.188354,187.662247 
	C628.401245,198.761520 639.816040,209.657944 650.966431,220.818893 
	C663.587769,233.452072 675.984680,246.309158 688.539917,259.008728 
	C692.948975,263.468414 697.538208,267.749908 702.045166,272.112762 
	C694.639099,278.775146 682.163574,278.842316 671.995544,272.547943 
	C666.896912,269.391693 661.532410,266.664886 656.124146,263.430542 
z"/>
<path fill="#3B7CFE" opacity="1.000000" stroke="none" 
	d="
M278.880707,73.960869 
	C290.320770,68.306946 301.760834,62.653019 313.748688,57.237518 
	C328.509338,71.851311 342.691711,86.257011 356.945679,100.591507 
	C366.651825,110.352516 376.472137,119.999847 386.216278,129.723221 
	C399.258698,142.737808 412.276794,155.776779 425.305298,168.805298 
	C437.038971,180.538956 448.773346,192.271957 460.506104,204.006546 
	C466.596008,210.097382 472.875397,216.014496 478.694794,222.353760 
	C481.867310,225.809677 484.257721,229.983551 487.000854,233.833618 
	C474.256226,236.456390 461.511566,239.079163 448.304901,241.443542 
	C444.980988,237.759613 442.386353,234.060242 439.208130,230.958939 
	C428.880829,220.881653 418.160156,211.204193 407.923859,201.037643 
	C393.101898,186.316666 378.621521,171.252487 363.902161,156.427292 
	C347.528931,139.936295 331.086792,123.513229 314.597046,107.138725 
	C309.649750,102.226006 304.315338,97.702057 299.389465,92.769157 
	C294.133453,87.505661 289.241150,81.878990 283.984955,76.615685 
	C282.692932,75.321907 280.603516,74.824432 278.880707,73.960869 
z"/>
<path fill="#3982FE" opacity="1.000000" stroke="none" 
	d="
M487.432800,233.904434 
	C484.257721,229.983551 481.867310,225.809677 478.694794,222.353760 
	C472.875397,216.014496 466.596008,210.097382 460.506104,204.006546 
	C448.773346,192.271957 437.038971,180.538956 425.305298,168.805298 
	C412.276794,155.776779 399.258698,142.737808 386.216278,129.723221 
	C376.472137,119.999847 366.651825,110.352516 356.945679,100.591507 
	C342.691711,86.257011 328.509338,71.851311 314.124451,57.182983 
	C324.359680,52.588081 334.766876,48.286133 345.564148,43.936592 
	C351.226440,49.367325 356.455444,54.888058 361.780579,60.314445 
	C370.733124,69.437248 379.716095,78.530663 388.744965,87.577888 
	C395.291931,94.138206 401.980072,100.557739 408.518494,107.126404 
	C413.783569,112.415886 418.864960,117.888168 424.127930,123.179802 
	C428.669922,127.746483 433.422394,132.103958 437.959717,136.675156 
	C448.464325,147.258362 458.899506,157.910599 469.353577,168.543915 
	C473.765289,173.031250 478.071899,177.625046 482.569061,182.024536 
	C492.890625,192.121994 503.328674,202.100357 513.660767,212.187195 
	C518.388855,216.803085 523.065369,221.479752 527.571411,226.309753 
	C528.740112,227.562454 529.178711,229.496185 529.977295,231.474548 
	C515.956238,232.546432 501.910492,233.260834 487.432800,233.904434 
z"/>
<path fill="#4071FE" opacity="1.000000" stroke="none" 
	d="
M392.407654,263.058563 
	C390.028931,259.588867 388.561127,255.563202 385.886322,252.642990 
	C380.878143,247.175140 375.059814,242.459717 369.779144,237.228745 
	C361.182617,228.713165 352.793884,219.988220 344.232635,211.436554 
	C332.985016,200.201553 321.636627,189.067520 310.366150,177.855331 
	C300.249176,167.790741 290.160583,157.697433 280.092560,147.583862 
	C266.069031,133.496857 252.093781,119.361694 238.037537,105.307480 
	C236.902206,104.172310 235.301422,103.502647 233.541595,102.399429 
	C242.940613,95.819366 252.715286,89.457024 262.488800,83.092918 
	C263.433258,82.477943 264.370514,81.851997 265.680298,81.552979 
	C267.663239,84.319626 268.940033,87.094856 270.953339,89.147827 
	C277.210754,95.528549 283.850525,101.532951 290.152435,107.871773 
	C300.031189,117.808395 309.678040,127.975800 319.570831,137.898163 
	C326.445068,144.792999 333.605774,151.401306 340.562561,158.215164 
	C344.101593,161.681488 347.449188,165.342422 350.926147,168.873215 
	C355.562866,173.581772 360.208344,178.282547 364.909973,182.926071 
	C370.919922,188.861862 377.065857,194.661499 383.014801,200.657150 
	C391.162750,208.869049 399.132782,217.257401 407.268677,225.481476 
	C414.463867,232.754684 421.781738,239.906540 429.045471,247.111969 
	C416.954956,252.408478 404.864410,257.704987 392.407654,263.058563 
z"/>
<path fill="#803AFF" opacity="1.000000" stroke="none" 
	d="
M12.966518,492.383301 
	C15.281487,493.682587 17.570852,495.185181 19.473978,497.076416 
	C23.932436,501.507019 28.129347,506.200287 32.573124,510.646301 
	C38.428387,516.504456 44.398037,522.249084 50.356033,528.003662 
	C58.558132,535.925781 66.878067,543.727844 74.987343,551.743347 
	C80.063927,556.761292 84.713608,562.211304 89.791039,567.228333 
	C97.556442,574.901245 105.654869,582.239197 113.358009,589.972351 
	C117.674034,594.305176 121.370827,599.248047 125.551529,603.724731 
	C128.374451,606.747437 131.529938,609.463440 134.581299,612.268066 
	C138.584122,615.947083 142.763611,619.444031 146.625931,623.263306 
	C151.684952,628.265930 156.414597,633.600952 161.455780,638.622437 
	C168.693359,645.831726 176.194702,652.777893 183.376984,660.040527 
	C189.888870,666.625366 196.011932,673.594299 202.515533,680.187622 
	C208.192078,685.942383 214.214828,691.354065 219.983948,697.019775 
	C225.787613,702.719421 231.387085,708.628235 237.229111,714.287292 
	C241.148132,718.083618 243.551926,724.010864 250.710846,724.032227 
	C244.982071,730.290955 238.850601,736.540344 232.118195,742.744934 
	C225.821640,737.443481 219.984406,732.330811 214.462906,726.897217 
	C205.717911,718.291382 197.253052,709.401428 188.536606,700.765930 
	C182.888184,695.169861 176.847137,689.967041 171.256546,684.316345 
	C159.971893,672.910339 148.879059,661.314697 137.697632,649.806458 
	C132.270111,644.220337 126.787743,638.687134 121.393723,633.068970 
	C117.723450,629.246216 114.332512,625.141724 110.518265,621.473450 
	C102.886841,614.134216 94.918442,607.143738 87.330681,599.761108 
	C76.531036,589.253357 65.895805,578.574768 55.289143,567.871216 
	C45.372093,557.863708 35.732635,547.576538 25.666409,537.723633 
	C21.581484,533.725281 16.690716,530.550293 12.166623,527.000610 
	C12.113853,516.338806 12.045623,505.676971 12.041367,495.015137 
	C12.041067,494.264587 12.513039,493.513824 12.966518,492.383301 
z"/>
<path fill="#833BFF" opacity="1.000000" stroke="none" 
	d="
M12.095403,527.464478 
	C16.690716,530.550293 21.581484,533.725281 25.666409,537.723633 
	C35.732635,547.576538 45.372093,557.863708 55.289143,567.871216 
	C65.895805,578.574768 76.531036,589.253357 87.330681,599.761108 
	C94.918442,607.143738 102.886841,614.134216 110.518265,621.473450 
	C114.332512,625.141724 117.723450,629.246216 121.393723,633.068970 
	C126.787743,638.687134 132.270111,644.220337 137.697632,649.806458 
	C148.879059,661.314697 159.971893,672.910339 171.256546,684.316345 
	C176.847137,689.967041 182.888184,695.169861 188.536606,700.765930 
	C197.253052,709.401428 205.717911,718.291382 214.462906,726.897217 
	C219.984406,732.330811 225.821640,737.443481 231.812286,742.874634 
	C226.207794,748.712219 220.308289,754.375305 214.144730,760.207031 
	C208.812607,755.642578 203.661087,750.995056 198.696808,746.155457 
	C191.944473,739.572571 185.388779,732.788269 178.652817,726.188293 
	C166.474197,714.255432 154.099457,702.520325 142.039993,690.469116 
	C130.079193,678.516479 118.527092,666.154968 106.572456,654.196045 
	C94.760559,642.379822 82.538170,630.973572 70.746948,619.137329 
	C62.895981,611.256348 55.638512,602.785828 47.831150,594.859192 
	C41.122704,588.048218 34.011475,581.633972 27.077915,575.044800 
	C25.518909,573.563232 24.046722,571.973816 22.378210,570.627808 
	C19.599728,568.386414 16.694876,566.301758 13.504944,564.077148 
	C12.785830,551.978271 12.405007,539.953308 12.095403,527.464478 
z"/>
<path fill="#9340FF" opacity="1.000000" stroke="none" 
	d="
M21.937077,624.464111 
	C27.128033,628.165161 32.584908,632.048584 37.556850,636.476501 
	C43.340580,641.627319 48.765144,647.190002 54.221237,652.697205 
	C58.291435,656.805542 62.047794,661.226562 66.149651,665.301208 
	C74.033958,673.133118 82.159760,680.722778 90.003448,688.594238 
	C96.220726,694.833618 102.014275,701.497009 108.266472,707.699402 
	C118.980408,718.328125 130.037216,728.612305 140.705780,739.285339 
	C151.753311,750.337341 162.503235,761.686707 173.400040,772.889709 
	C175.716034,775.270691 178.278275,777.434265 180.414413,779.962219 
	C182.994446,783.015442 185.996094,784.582947 190.419952,784.002197 
	C182.797012,792.264038 174.761551,800.525391 166.001556,808.905518 
	C160.751892,809.680420 157.643219,807.012390 154.897797,804.151245 
	C145.881790,794.755249 137.232574,785.002075 128.084396,775.739746 
	C119.490135,767.038086 110.408661,758.819275 101.605911,750.321289 
	C96.850754,745.730774 92.196793,741.033630 87.557442,736.325256 
	C81.646339,730.326111 75.848831,724.214539 69.906128,718.247253 
	C62.931793,711.244080 56.005131,704.179077 48.722645,697.506714 
	C46.727158,695.678406 43.531319,695.160278 40.886353,694.040894 
	C35.590439,676.053040 30.199898,658.092163 25.060417,640.059692 
	C23.650343,635.112305 22.991911,629.950684 21.937077,624.464111 
z"/>
<path fill="#593BFF" opacity="1.000000" stroke="none" 
	d="
M248.113113,427.043121 
	C245.138962,437.127533 242.164810,447.211914 238.687790,457.566772 
	C234.320541,454.255066 230.350281,450.779663 226.611130,447.071198 
	C214.125092,434.687805 201.720062,422.222717 189.287369,409.785553 
	C178.502701,398.997101 167.727646,388.199036 156.939148,377.414368 
	C144.392197,364.871857 131.830460,352.344116 119.284065,339.801086 
	C107.320724,327.840973 95.349228,315.888855 83.421326,303.893463 
	C78.523056,298.967468 73.729607,293.937286 68.888474,288.954498 
	C73.361496,280.700806 77.834518,272.447144 82.855606,264.294189 
	C86.074165,267.116119 88.694771,269.888458 91.423096,272.550385 
	C112.111115,292.735016 132.900589,312.816498 153.485535,333.105560 
	C162.440613,341.931915 170.927658,351.231079 179.736877,360.207947 
	C192.553024,373.267975 205.328506,386.373169 218.387375,399.187988 
	C228.076828,408.696350 238.189148,417.773773 248.113113,427.043121 
z"/>
<path fill="#2E9BFD" opacity="1.000000" stroke="none" 
	d="
M702.393188,272.059021 
	C697.538208,267.749908 692.948975,263.468414 688.539917,259.008728 
	C675.984680,246.309158 663.587769,233.452072 650.966431,220.818893 
	C639.816040,209.657944 628.401245,198.761520 617.188354,187.662247 
	C605.888672,176.477005 594.687866,165.191925 583.454956,153.939301 
	C571.043945,141.506546 558.658936,129.047897 546.238159,116.624931 
	C535.550903,105.935776 524.757935,95.351402 514.142456,84.591690 
	C502.973267,73.270691 492.058990,61.697350 480.842621,50.424049 
	C473.353546,42.896938 465.467041,35.766796 457.886871,28.328131 
	C454.483643,24.988468 451.394562,21.328705 448.081970,17.489958 
	C456.050140,16.117542 464.099335,15.069350 472.600220,14.443971 
	C473.359314,15.621835 473.474915,16.564363 474.002563,17.103966 
	C482.573029,25.867941 491.165131,34.611233 499.813721,43.298115 
	C512.591248,56.132198 525.391785,68.943680 538.229370,81.717690 
	C553.655884,97.067810 569.193054,112.307175 584.572205,127.704468 
	C610.075256,153.237595 635.478821,178.869995 660.947144,204.437836 
	C674.450134,217.993607 688.068604,231.435074 701.494263,245.066757 
	C706.226074,249.871216 710.539001,255.088150 715.043213,260.116760 
	C710.942566,264.079620 706.841858,268.042450 702.393188,272.059021 
z"/>
<path fill="#2C9FFD" opacity="1.000000" stroke="none" 
	d="
M715.352295,259.980347 
	C710.539001,255.088150 706.226074,249.871216 701.494263,245.066757 
	C688.068604,231.435074 674.450134,217.993607 660.947144,204.437836 
	C635.478821,178.869995 610.075256,153.237595 584.572205,127.704468 
	C569.193054,112.307175 553.655884,97.067810 538.229370,81.717690 
	C525.391785,68.943680 512.591248,56.132198 499.813721,43.298115 
	C491.165131,34.611233 482.573029,25.867941 474.002563,17.103966 
	C473.474915,16.564363 473.359314,15.621835 473.026337,14.516541 
	C480.714600,13.451164 488.428528,12.736032 496.595581,12.443277 
	C497.532898,13.898150 497.786102,15.153680 498.535675,15.929832 
	C510.673248,28.497358 522.677185,41.203323 535.111938,53.471973 
	C549.298828,67.469284 564.068298,80.876419 578.240723,94.887840 
	C592.395813,108.882019 606.049866,123.381416 620.061340,137.522842 
	C637.369873,154.992020 654.820190,172.320786 672.210083,189.709396 
	C675.829590,193.328613 679.443726,196.953247 683.076233,200.559372 
	C687.290588,204.743210 691.522217,208.909683 695.746887,213.083115 
	C706.868958,224.070160 717.991333,235.056900 729.113586,246.043762 
	C724.629517,250.643814 720.145447,255.243851 715.352295,259.980347 
z"/>
<path fill="#6633FF" opacity="1.000000" stroke="none" 
	d="
M43.562889,346.140686 
	C46.774719,348.010620 49.965069,349.747498 52.508831,352.164795 
	C64.036308,363.119293 75.517471,374.130188 86.736076,385.398804 
	C92.589622,391.278442 97.677628,397.915161 103.453171,403.878906 
	C109.560272,410.185120 116.094261,416.076569 122.402382,422.189850 
	C126.919182,426.567169 131.442780,430.941437 135.836304,435.441132 
	C143.818237,443.615967 151.627106,451.960632 159.651733,460.092773 
	C170.533569,471.120392 181.501038,482.064911 192.530502,492.944946 
	C197.953659,498.294678 203.733551,503.285126 209.108093,508.681122 
	C215.194870,514.792175 220.978485,521.204224 226.964951,527.416931 
	C228.212814,528.711975 229.771423,529.707642 231.510010,530.921082 
	C232.561768,541.357239 233.290329,551.713562 233.693542,562.503296 
	C231.558044,561.916992 229.435074,561.220947 227.989777,559.823853 
	C220.159775,552.254883 212.491959,544.518005 204.778946,536.828186 
	C198.928436,530.995300 193.084793,525.155579 187.254852,519.302185 
	C181.572418,513.596863 175.965958,507.814728 170.224716,502.169495 
	C164.933868,496.967102 159.369797,492.037689 154.174484,486.744263 
	C146.402634,478.825470 138.937576,470.605835 131.176712,462.675964 
	C123.218666,454.544647 115.040596,446.629150 106.997940,438.580078 
	C99.162453,430.738312 91.434708,422.788086 83.546165,415.000488 
	C79.065765,410.577393 74.159096,406.576324 69.794586,402.047668 
	C61.408703,393.346313 53.392536,384.287354 44.959698,375.633301 
	C42.374088,372.979858 38.929966,371.163025 35.878983,368.963074 
	C38.333881,361.415710 40.788776,353.868317 43.562889,346.140686 
z"/>
<path fill="#2AA2FD" opacity="1.000000" stroke="none" 
	d="
M729.419312,245.914825 
	C717.991333,235.056900 706.868958,224.070160 695.746887,213.083115 
	C691.522217,208.909683 687.290588,204.743210 683.076233,200.559372 
	C679.443726,196.953247 675.829590,193.328613 672.210083,189.709396 
	C654.820190,172.320786 637.369873,154.992020 620.061340,137.522842 
	C606.049866,123.381416 592.395813,108.882019 578.240723,94.887840 
	C564.068298,80.876419 549.298828,67.469284 535.111938,53.471973 
	C522.677185,41.203323 510.673248,28.497358 498.535675,15.929832 
	C497.786102,15.153680 497.532898,13.898150 497.024658,12.515970 
	C504.358490,12.117684 511.716370,12.069083 519.537964,12.093434 
	C521.030518,13.640213 521.869995,15.301996 523.117493,16.558825 
	C535.830750,29.367289 548.609619,42.110584 561.371582,54.870655 
	C571.320679,64.818275 581.273315,74.762306 591.221619,84.710732 
	C601.916809,95.406021 612.547424,106.166878 623.322021,116.781570 
	C631.592529,124.929398 640.175354,132.762482 648.377869,140.976639 
	C657.517944,150.129807 666.253113,159.687592 675.404053,168.829453 
	C686.745911,180.160080 698.421326,191.156448 709.789551,202.461182 
	C720.145996,212.759796 730.284424,223.277649 740.813110,233.874359 
	C737.313232,237.961853 733.519104,241.873856 729.419312,245.914825 
z"/>
<path fill="#5640FF" opacity="1.000000" stroke="none" 
	d="
M248.436768,426.852997 
	C238.189148,417.773773 228.076828,408.696350 218.387375,399.187988 
	C205.328506,386.373169 192.553024,373.267975 179.736877,360.207947 
	C170.927658,351.231079 162.440613,341.931915 153.485535,333.105560 
	C132.900589,312.816498 112.111115,292.735016 91.423096,272.550385 
	C88.694771,269.888458 86.074165,267.116119 83.176422,264.144775 
	C87.050873,257.010956 91.152573,250.127258 95.568687,243.101929 
	C98.236031,245.453156 100.505531,248.031479 102.956230,250.424225 
	C114.098099,261.302643 125.406036,272.013397 136.431030,283.008301 
	C146.157410,292.708099 155.550339,302.741455 165.176483,312.543121 
	C167.610352,315.021301 170.520798,317.030884 172.959518,319.504944 
	C189.380493,336.163940 205.652206,352.970673 222.139420,369.563507 
	C231.696014,379.181335 241.547012,388.507324 251.306259,397.922424 
	C253.148148,399.699341 255.182083,401.277222 257.479980,402.971497 
	C254.808502,410.884979 251.784470,418.773926 248.436768,426.852997 
z"/>
<path fill="#9941FF" opacity="1.000000" stroke="none" 
	d="
M40.937889,694.427368 
	C43.531319,695.160278 46.727158,695.678406 48.722645,697.506714 
	C56.005131,704.179077 62.931793,711.244080 69.906128,718.247253 
	C75.848831,724.214539 81.646339,730.326111 87.557442,736.325256 
	C92.196793,741.033630 96.850754,745.730774 101.605911,750.321289 
	C110.408661,758.819275 119.490135,767.038086 128.084396,775.739746 
	C137.232574,785.002075 145.881790,794.755249 154.897797,804.151245 
	C157.643219,807.012390 160.751892,809.680420 165.695099,809.032776 
	C158.898865,816.074646 151.977844,823.444092 144.398834,830.059814 
	C134.029099,839.111511 116.890015,836.229797 108.143990,823.611877 
	C90.746452,798.512268 74.474686,772.727173 61.659481,744.986633 
	C54.080433,728.580688 47.834721,711.558777 40.937889,694.427368 
z"/>
<path fill="#6B35FF" opacity="1.000000" stroke="none" 
	d="
M237.833405,585.001099 
	C239.886520,592.211182 241.915802,599.428223 244.004395,606.628052 
	C244.844482,609.523987 245.814651,612.382202 246.411392,615.622864 
	C242.909546,613.559814 239.453659,611.409973 236.587372,608.648132 
	C229.546188,601.863770 222.700714,594.870483 215.919724,587.823486 
	C209.658035,581.316101 203.750366,574.462708 197.383438,568.063477 
	C189.086868,559.724915 180.383911,551.791565 172.052963,543.486023 
	C163.018188,534.478821 154.301376,525.152771 145.271851,516.140198 
	C138.933121,509.813293 132.187576,503.894409 125.836044,497.579773 
	C119.788231,491.567108 114.172546,485.117401 108.081375,479.151337 
	C100.991104,472.206604 93.557709,465.613464 86.337936,458.799164 
	C82.403694,455.085907 78.510155,451.319794 74.773216,447.410309 
	C71.919586,444.424896 69.507263,441.012512 66.609169,438.075745 
	C57.212566,428.553864 47.788204,419.053741 38.147377,409.781464 
	C34.727634,406.492432 30.655993,403.881195 26.881950,400.960571 
	C28.262512,395.238556 29.643080,389.516510 31.420177,383.479614 
	C36.297176,386.508148 40.787727,389.838165 45.246990,393.209564 
	C45.897179,393.701172 46.405235,394.383667 46.966732,394.989227 
	C56.442726,405.209442 65.701469,415.642456 75.452591,425.592957 
	C84.942062,435.276489 94.991913,444.408722 104.671066,453.910004 
	C107.375366,456.564636 109.446571,459.862946 112.142883,462.527283 
	C118.267921,468.579620 124.689339,474.331635 130.827576,480.371094 
	C139.181625,488.590790 147.379196,496.969421 155.653091,505.270752 
	C160.782715,510.417328 165.977310,515.500000 171.056793,520.695435 
	C177.996536,527.793640 184.734573,535.092651 191.778168,542.084839 
	C200.382523,550.626465 209.121658,559.037964 217.977737,567.318298 
	C224.449677,573.369385 231.204605,579.117798 237.833405,585.001099 
z"/>
<path fill="#6F36FF" opacity="1.000000" stroke="none" 
	d="
M26.548382,401.165710 
	C30.655993,403.881195 34.727634,406.492432 38.147377,409.781464 
	C47.788204,419.053741 57.212566,428.553864 66.609169,438.075745 
	C69.507263,441.012512 71.919586,444.424896 74.773216,447.410309 
	C78.510155,451.319794 82.403694,455.085907 86.337936,458.799164 
	C93.557709,465.613464 100.991104,472.206604 108.081375,479.151337 
	C114.172546,485.117401 119.788231,491.567108 125.836044,497.579773 
	C132.187576,503.894409 138.933121,509.813293 145.271851,516.140198 
	C154.301376,525.152771 163.018188,534.478821 172.052963,543.486023 
	C180.383911,551.791565 189.086868,559.724915 197.383438,568.063477 
	C203.750366,574.462708 209.658035,581.316101 215.919724,587.823486 
	C222.700714,594.870483 229.546188,601.863770 236.587372,608.648132 
	C239.453659,611.409973 242.909546,613.559814 246.465240,615.994446 
	C251.223175,627.073669 255.613022,638.146606 260.058167,649.588867 
	C253.874176,644.589355 247.558411,639.305969 241.425415,633.818298 
	C237.980850,630.736267 234.847656,627.307312 231.557510,624.051514 
	C226.995453,619.537048 222.356567,615.098511 217.859390,610.520569 
	C208.466766,600.959351 199.098328,591.373474 189.808914,581.712158 
	C181.527313,573.099060 173.593307,564.138916 165.074799,555.770752 
	C158.853271,549.658997 151.797638,544.405640 145.369781,538.491394 
	C141.139862,534.599487 137.410614,530.168335 133.377182,526.057129 
	C124.558731,517.068481 115.674652,508.144196 106.844833,499.166626 
	C98.648727,490.833435 90.593712,482.358704 82.288719,474.136017 
	C68.143288,460.130829 53.822651,446.302704 39.641960,432.332855 
	C36.587307,429.323608 33.987671,425.841736 30.851143,422.930145 
	C28.740973,420.971283 26.055115,419.632599 23.256590,417.987305 
	C23.995848,412.429077 25.105328,406.899963 26.548382,401.165710 
z"/>
<path fill="#5B36FF" opacity="1.000000" stroke="none" 
	d="
M68.576965,289.122284 
	C73.729607,293.937286 78.523056,298.967468 83.421326,303.893463 
	C95.349228,315.888855 107.320724,327.840973 119.284065,339.801086 
	C131.830460,352.344116 144.392197,364.871857 156.939148,377.414368 
	C167.727646,388.199036 178.502701,398.997101 189.287369,409.785553 
	C201.720062,422.222717 214.125092,434.687805 226.611130,447.071198 
	C230.350281,450.779663 234.320541,454.255066 238.509155,457.917480 
	C237.555466,465.062714 236.277573,472.127747 234.915924,479.596741 
	C233.242218,478.854553 231.469986,477.893005 230.091873,476.532288 
	C220.995407,467.550903 211.983688,458.483643 202.944351,449.444366 
	C188.066376,434.566437 173.166794,419.710052 158.317215,404.803894 
	C146.157227,392.597565 134.099915,380.288788 121.917679,368.104828 
	C110.207397,356.392914 98.410042,344.767822 86.622757,333.133148 
	C77.908066,324.531281 69.148125,315.975220 60.179150,307.147186 
	C62.721779,301.027100 65.493614,295.158569 68.576965,289.122284 
z"/>
<path fill="#3E75FE" opacity="1.000000" stroke="none" 
	d="
M429.441772,247.062851 
	C421.781738,239.906540 414.463867,232.754684 407.268677,225.481476 
	C399.132782,217.257401 391.162750,208.869049 383.014801,200.657150 
	C377.065857,194.661499 370.919922,188.861862 364.909973,182.926071 
	C360.208344,178.282547 355.562866,173.581772 350.926147,168.873215 
	C347.449188,165.342422 344.101593,161.681488 340.562561,158.215164 
	C333.605774,151.401306 326.445068,144.792999 319.570831,137.898163 
	C309.678040,127.975800 300.031189,117.808395 290.152435,107.871773 
	C283.850525,101.532951 277.210754,95.528549 270.953339,89.147827 
	C268.940033,87.094856 267.663239,84.319626 266.025513,81.520554 
	C270.080322,78.859489 274.159149,76.552673 278.559326,74.103363 
	C280.603516,74.824432 282.692932,75.321907 283.984955,76.615685 
	C289.241150,81.878990 294.133453,87.505661 299.389465,92.769157 
	C304.315338,97.702057 309.649750,102.226006 314.597046,107.138725 
	C331.086792,123.513229 347.528931,139.936295 363.902161,156.427292 
	C378.621521,171.252487 393.101898,186.316666 407.923859,201.037643 
	C418.160156,211.204193 428.880829,220.881653 439.208130,230.958939 
	C442.386353,234.060242 444.980988,237.759613 447.923401,241.508682 
	C441.948639,243.559387 435.893341,245.286560 429.441772,247.062851 
z"/>
<path fill="#4860FE" opacity="1.000000" stroke="none" 
	d="
M339.395447,297.057831 
	C337.736053,295.615448 336.508118,294.038818 335.107574,292.634338 
	C320.704987,278.191345 306.274506,263.776215 291.851746,249.353363 
	C281.032532,238.534103 270.272064,227.655197 259.374115,216.915848 
	C251.592957,209.247940 243.420074,201.969894 235.786224,194.161774 
	C219.313354,177.312851 203.077377,160.232346 186.732193,143.258438 
	C186.044495,142.544281 185.233170,141.949158 184.184937,141.124756 
	C188.012131,137.299026 192.133820,133.647110 196.605713,129.942215 
	C200.024185,133.145569 202.998169,136.497223 206.176758,139.642059 
	C221.406113,154.709625 236.803497,169.608826 251.932556,184.775970 
	C283.885132,216.809006 315.703918,248.975494 347.593750,281.071167 
	C349.348755,282.837524 351.251190,284.457367 353.406372,286.387756 
	C349.067383,290.087921 344.407074,293.545715 339.395447,297.057831 
z"/>
<path fill="#6934FF" opacity="1.000000" stroke="none" 
	d="
M237.904556,584.584473 
	C231.204605,579.117798 224.449677,573.369385 217.977737,567.318298 
	C209.121658,559.037964 200.382523,550.626465 191.778168,542.084839 
	C184.734573,535.092651 177.996536,527.793640 171.056793,520.695435 
	C165.977310,515.500000 160.782715,510.417328 155.653091,505.270752 
	C147.379196,496.969421 139.181625,488.590790 130.827576,480.371094 
	C124.689339,474.331635 118.267921,468.579620 112.142883,462.527283 
	C109.446571,459.862946 107.375366,456.564636 104.671066,453.910004 
	C94.991913,444.408722 84.942062,435.276489 75.452591,425.592957 
	C65.701469,415.642456 56.442726,405.209442 46.966732,394.989227 
	C46.405235,394.383667 45.897179,393.701172 45.246990,393.209564 
	C40.787727,389.838165 36.297176,386.508148 31.491667,383.083435 
	C32.520893,378.450562 33.875164,373.899017 35.554207,369.155273 
	C38.929966,371.163025 42.374088,372.979858 44.959698,375.633301 
	C53.392536,384.287354 61.408703,393.346313 69.794586,402.047668 
	C74.159096,406.576324 79.065765,410.577393 83.546165,415.000488 
	C91.434708,422.788086 99.162453,430.738312 106.997940,438.580078 
	C115.040596,446.629150 123.218666,454.544647 131.176712,462.675964 
	C138.937576,470.605835 146.402634,478.825470 154.174484,486.744263 
	C159.369797,492.037689 164.933868,496.967102 170.224716,502.169495 
	C175.965958,507.814728 181.572418,513.596863 187.254852,519.302185 
	C193.084793,525.155579 198.928436,530.995300 204.778946,536.828186 
	C212.491959,544.518005 220.159775,552.254883 227.989777,559.823853 
	C229.435074,561.220947 231.558044,561.916992 233.743866,562.948608 
	C235.404907,570.029663 236.690308,577.098755 237.904556,584.584473 
z"/>
</svg>