 <svg  version="1.0" xmlns="http://www.w3.org/2000/svg"  width="300.000000pt" height="126.000000pt" viewBox="0 0 300.000000 126.000000"  preserveAspectRatio="xMidYMid meet">  <g transform="translate(0.000000,126.000000) scale(0.100000,-0.100000)" fill="#6a45fc" stroke="none"> <path d="M1565 1240 c-16 -5 -56 -14 -87 -20 l-58 -11 0 -85 c0 -77 2 -85 18 -80 9 2 54 12 100 22 l82 17 0 83 c0 90 1 89 -55 74z"/> <path d="M660 1131 l-75 -17 -3 -350 c-3 -379 -1 -402 49 -459 44 -50 102 -69 197 -63 43 2 84 8 90 12 8 5 12 37 12 89 l0 82 -54 -3 c-44 -3 -58 0 -75 17 -20 20 -21 32 -21 191 l0 170 75 0 75 0 0 90 0 90 -75 0 -75 0 0 85 c0 98 8 94 -120 66z"/> <path d="M188 977 c-111 -32 -178 -115 -178 -222 0 -97 56 -156 195 -209 95 -35 117 -52 113 -84 -4 -38 -41 -54 -108 -46 -54 6 -154 38 -177 57 -10 7 -13 -12 -13 -91 l0 -100 48 -17 c71 -26 225 -31 295 -11 65 19 120 62 148 117 23 45 25 134 6 182 -22 52 -86 101 -173 132 -43 16 -89 35 -101 43 -30 18 -30 58 -1 73 29 16 131 5 197 -20 l52 -19 -3 95 -3 96 -40 14 c-59 20 -201 26 -257 10z"/> <path d="M1979 975 c-26 -8 -52 -22 -59 -30 -18 -21 -27 -19 -34 10 -6 25 -8 26 -94 23 l-87 -3 -3 -483 c-2 -457 -1 -483 15 -478 10 3 54 12 97 21 44 9 83 18 88 21 4 3 8 54 8 115 0 60 3 109 8 109 4 0 18 -7 31 -16 14 -10 52 -19 92 -22 60 -4 75 -1 123 22 95 46 148 134 167 273 39 289 -137 507 -352 438z m88 -190 c53 -35 79 -138 59 -235 -23 -109 -102 -158 -187 -115 l-29 16 2 162 3 162 35 18 c38 19 79 17 117 -8z"/> <path d="M2608 976 c-90 -24 -150 -81 -200 -191 -20 -44 -23 -66 -23 -175 0 -116 2 -129 28 -185 34 -73 76 -118 142 -153 46 -25 59 -27 170 -26 96 0 130 4 170 20 l50 20 3 83 c3 77 1 83 -15 77 -92 -36 -211 -46 -267 -22 -40 17 -76 60 -76 92 l0 24 201 0 202 0 -5 98 c-7 128 -33 197 -102 268 -75 77 -167 100 -278 70z m153 -185 c16 -16 29 -38 29 -49 0 -11 3 -27 6 -36 5 -14 -8 -16 -105 -16 -121 0 -121 0 -101 57 27 74 117 97 171 44z"/> <path d="M1007 973 c-4 -3 -7 -168 -7 -365 l0 -358 105 0 105 0 0 250 0 250 33 20 c18 12 50 20 75 20 l42 0 0 95 0 95 -50 0 c-40 0 -55 -5 -83 -29 l-33 -30 -11 30 c-11 29 -12 29 -90 29 -44 0 -83 -3 -86 -7z"/> <path d="M1420 615 l0 -365 100 0 100 0 0 365 0 365 -100 0 -100 0 0 -365z"/> </g> </svg> 