<?xml version="1.0" standalone="no"?>
<!DOCTYPE svg PUBLIC "-//W3C//DTD SVG 20010904//EN"
 "http://www.w3.org/TR/2001/REC-SVG-20010904/DTD/svg10.dtd">
<svg version="1.0" xmlns="http://www.w3.org/2000/svg"
 width="300.000000pt" height="60.000000pt" viewBox="0 0 300.000000 60.000000"
 preserveAspectRatio="xMidYMid meet">
<metadata>
Created by potrace 1.10, written by Peter Selinger 2001-2011
</metadata>
<g transform="translate(0.000000,60.000000) scale(0.050000,-0.050000)"
fill="#ffffff" stroke="none">
<path d="M429 1188 c-11 -3 -64 -11 -119 -18 -358 -48 -355 -650 3 -650 171 0
415 -111 397 -181 -43 -166 -362 -187 -434 -28 -24 52 -276 78 -276 29 0 -340
669 -463 875 -160 159 234 10 438 -398 541 -259 65 -271 74 -230 153 73 142
252 171 364 59 67 -67 258 -111 300 -69 26 26 -80 202 -149 247 -64 42 -276
91 -333 77z"/>
<path d="M1372 1045 c-31 -74 -92 -220 -135 -325 -81 -195 -147 -352 -206
-488 -37 -87 -34 -91 103 -188 74 -52 70 -57 146 163 32 93 80 217 107 276
108 240 141 362 106 388 -21 15 -33 51 -32 101 l2 78 31 -70 c17 -38 42 -92
56 -120 14 -27 36 -86 50 -130 14 -44 63 -179 110 -300 47 -121 101 -263 120
-315 l35 -95 128 0 c70 0 127 4 127 9 0 5 -13 39 -28 75 -27 62 -102 254 -163
416 -14 39 -52 138 -85 220 -32 83 -83 215 -113 295 l-54 145 -124 0 -124 0
-57 -135z"/>
<path d="M2240 601 l0 -581 120 0 120 0 0 380 0 379 -49 13 c-47 11 -133 193
-105 221 14 14 154 -180 442 -613 l245 -370 124 -6 123 -6 0 581 0 581 -120 0
-120 0 0 -339 c0 -340 17 -441 73 -441 25 0 30 -17 37 -140 3 -49 -40 -120
-73 -120 -9 0 -17 54 -17 121 0 66 -10 132 -21 145 -12 13 -128 191 -258 394
l-237 370 -142 6 -142 6 0 -581z"/>
<path d="M3480 600 l0 -580 120 0 120 0 0 580 0 580 -120 0 -120 0 0 -580z"/>
<path d="M3860 1071 l0 -108 485 -7 c559 -7 536 -13 453 121 l-64 103 -437 0
-437 0 0 -109z"/>
<path d="M5018 986 c64 -108 149 -250 189 -316 41 -66 84 -144 97 -172 21 -49
32 -53 147 -52 133 2 127 -3 213 152 22 39 70 122 106 182 36 61 103 173 148
250 l82 140 -123 6 c-146 7 -125 26 -275 -246 -116 -210 -141 -252 -196 -327
-23 -30 -25 -30 -25 5 -1 21 14 49 32 62 39 28 20 76 -138 350 l-86 150 -143
6 -144 6 116 -196z"/>
<path d="M4609 901 c-131 -46 -187 -82 -176 -111 11 -28 -25 -60 -99 -88 l-55
-21 31 58 c51 99 27 175 -48 152 -41 -13 -42 -23 -42 -442 l0 -429 130 0 130
0 0 377 0 377 55 26 c30 15 60 28 65 29 18 2 160 94 160 103 0 15 -50 5 -151
-31z"/>
<path d="M1595 438 c-19 -11 -35 -15 -35 -8 0 7 -41 -16 -92 -51 -68 -47 -89
-73 -81 -102 6 -26 -17 -69 -69 -129 -88 -102 -86 -151 4 -86 33 23 71 43 84
45 14 2 57 24 97 48 39 25 80 45 89 45 61 2 117 77 84 113 -18 21 -36 61 -39
91 -6 45 -13 50 -42 34z"/>
<path d="M5320 218 l0 -198 130 0 130 0 0 175 c-1 193 -17 247 -59 196 -31
-37 -84 -40 -117 -7 -69 69 -84 38 -84 -166z"/>
</g>
</svg>
