<svg xmlns="http://www.w3.org/2000/svg" viewBox="0 12.279999732971191 147.22000122070312 38.62000274658203" data-asc="1.00537109375"><g fill="#ffffff"><g fill="#ffffff" transform="translate(0, 0)"><path d="M32.91 13.92L19.68 50.27L13.23 50.27L0 13.92L5.18 13.92L16.58 45.90L27.98 13.92L32.91 13.92ZM58.45 37.11L38.35 37.11Q38.35 39.62 39.11 41.49Q39.87 43.36 41.19 44.56Q42.46 45.73 44.20 46.31Q45.95 46.90 48.05 46.90Q50.83 46.90 53.65 45.79Q56.47 44.68 57.67 43.60L57.91 43.60L57.91 48.61Q55.59 49.58 53.17 50.24Q50.76 50.90 48.10 50.90Q41.31 50.90 37.50 47.23Q33.69 43.55 33.69 36.79Q33.69 30.10 37.34 26.17Q40.99 22.24 46.95 22.24Q52.47 22.24 55.46 25.46Q58.45 28.69 58.45 34.62L58.45 37.11M53.98 33.59Q53.96 29.98 52.16 28.00Q50.37 26.03 46.70 26.03Q43.02 26.03 40.83 28.20Q38.65 30.37 38.35 33.59L53.98 33.59ZM82.42 28.00L82.18 28.00Q81.15 27.76 80.19 27.65Q79.22 27.54 77.91 27.54Q75.78 27.54 73.80 28.48Q71.83 29.42 70.00 30.91L70.00 50.27L65.41 50.27L65.41 23.00L70.00 23.00L70.00 27.03Q72.73 24.83 74.82 23.91Q76.90 23.00 79.08 23.00Q80.27 23.00 80.81 23.06Q81.35 23.12 82.42 23.29L82.42 28.00ZM106.91 48.56Q104.61 49.66 102.55 50.27Q100.49 50.88 98.17 50.88Q95.21 50.88 92.75 50.01Q90.28 49.15 88.53 47.39Q86.74 45.63 85.77 42.94Q84.79 40.26 84.79 36.67Q84.79 29.98 88.46 26.17Q92.14 22.36 98.17 22.36Q100.51 22.36 102.77 23.02Q105.03 23.68 106.91 24.63L106.91 29.74L106.67 29.74Q104.57 28.10 102.33 27.22Q100.10 26.34 97.97 26.34Q94.07 26.34 91.81 28.97Q89.55 31.59 89.55 36.67Q89.55 41.60 91.76 44.25Q93.97 46.90 97.97 46.90Q99.37 46.90 100.81 46.53Q102.25 46.17 103.39 45.58Q104.39 45.07 105.27 44.49Q106.15 43.92 106.67 43.51L106.91 43.51L106.91 48.56ZM135.62 37.11L115.53 37.11Q115.53 39.62 116.28 41.49Q117.04 43.36 118.36 44.56Q119.63 45.73 121.37 46.31Q123.12 46.90 125.22 46.90Q128.00 46.90 130.82 45.79Q133.64 44.68 134.84 43.60L135.08 43.60L135.08 48.61Q132.76 49.58 130.35 50.24Q127.93 50.90 125.27 50.90Q118.48 50.90 114.67 47.23Q110.86 43.55 110.86 36.79Q110.86 30.10 114.51 26.17Q118.16 22.24 124.12 22.24Q129.64 22.24 132.63 25.46Q135.62 28.69 135.62 34.62L135.62 37.11M131.15 33.59Q131.13 29.98 129.33 28.00Q127.54 26.03 123.88 26.03Q120.19 26.03 118.01 28.20Q115.82 30.37 115.53 33.59L131.15 33.59ZM147.22 50.27L142.63 50.27L142.63 12.28L147.22 12.28L147.22 50.27Z"/></g></g></svg>