 <svg  version="1.0" xmlns="http://www.w3.org/2000/svg"  width="693.000000pt" height="114.000000pt" viewBox="0 0 693.000000 114.000000"  preserveAspectRatio="xMidYMid meet">  <g transform="translate(0.000000,114.000000) scale(0.100000,-0.100000)" fill="#fcfcfc" stroke="none"> <path d="M4467 1047 c-32 -12 -72 -34 -90 -48 -41 -33 -72 -115 -62 -166 20 -109 96 -160 275 -184 36 -4 81 -13 100 -19 19 -5 51 -10 70 -10 40 0 122 -27 161 -53 30 -20 54 -84 46 -119 -12 -45 -47 -87 -89 -110 -39 -20 -56 -22 -191 -21 -121 1 -151 4 -166 17 -10 9 -24 16 -32 16 -27 0 -87 81 -94 126 -5 36 -11 45 -31 50 -37 10 -74 -3 -74 -26 0 -99 75 -192 181 -225 53 -17 92 -20 230 -20 142 0 171 3 210 20 110 48 149 100 149 200 0 143 -64 184 -350 225 -47 7 -103 18 -125 26 -23 8 -49 14 -59 14 -33 0 -86 41 -102 78 -13 31 -13 43 -2 80 16 54 39 75 110 96 42 13 81 16 155 13 135 -5 197 -32 234 -101 10 -20 19 -45 19 -57 0 -18 5 -20 48 -17 l47 3 -3 40 c-6 77 -71 142 -172 174 -28 9 -101 15 -190 17 -129 3 -151 1 -203 -19z"/> <path d="M5415 1053 c-49 -15 -111 -42 -150 -66 -31 -19 -115 -108 -115 -122 0 -7 -6 -18 -14 -24 -8 -6 -16 -26 -20 -44 -3 -18 -11 -63 -17 -100 -13 -72 -6 -111 40 -222 16 -41 124 -155 146 -155 7 0 18 -7 25 -15 7 -8 21 -15 32 -15 10 0 31 -8 45 -17 23 -16 53 -18 208 -18 153 0 185 3 212 17 46 26 58 23 123 -27 32 -25 65 -45 72 -45 8 0 25 11 37 24 l22 24 -38 31 c-21 17 -48 34 -60 37 -34 9 -28 35 17 79 22 21 40 43 40 49 0 5 6 17 13 25 20 24 47 134 47 193 0 101 -52 219 -123 285 -52 48 -104 76 -190 103 -78 25 -275 26 -352 3z m307 -61 c6 -6 22 -12 34 -12 54 0 185 -121 204 -189 19 -66 23 -167 9 -230 -7 -34 -16 -61 -20 -61 -4 0 -11 -10 -15 -22 -11 -36 -84 -103 -134 -123 -8 -4 -30 -14 -48 -23 -48 -23 -290 -22 -326 2 -14 9 -30 16 -36 16 -22 0 -133 94 -146 124 -8 17 -18 38 -23 46 -5 8 -14 44 -20 80 -9 51 -9 80 2 135 26 134 94 204 247 259 55 19 252 18 272 -2z"/> <path d="M6175 1051 l-30 -6 0 -390 0 -390 315 -3 c173 -1 325 0 338 3 18 5 23 11 20 33 l-3 27 -287 3 c-159 1 -289 3 -290 5 -1 1 -5 164 -8 361 -3 227 -9 360 -15 361 -5 2 -23 0 -40 -4z"/> <path d="M115 1038 c-3 -7 -4 -184 -3 -393 l3 -380 40 0 40 0 5 165 5 165 215 6 c118 4 229 10 247 15 47 13 120 79 143 129 25 56 25 111 0 166 -26 57 -46 80 -95 110 -39 24 -45 24 -317 27 -225 3 -279 1 -283 -10z m544 -74 c63 -37 89 -131 56 -205 -39 -89 -79 -100 -327 -97 l-183 3 -3 150 c-1 82 0 156 3 163 4 12 39 14 213 10 182 -4 212 -7 241 -24z"/> <path d="M2227 943 c-4 -3 -7 -36 -7 -72 0 -36 -4 -71 -8 -78 -4 -6 -25 -13 -47 -15 -32 -2 -40 -7 -40 -23 0 -16 7 -20 35 -20 60 0 60 1 60 -197 0 -207 7 -238 57 -262 48 -23 149 -22 161 2 17 32 3 42 -58 42 -49 0 -61 4 -70 20 -7 12 -9 88 -8 202 l3 183 62 3 c108 5 106 48 -2 54 l-60 3 -3 83 -3 82 -33 0 c-18 0 -36 -3 -39 -7z"/> <path d="M990 777 c-50 -16 -75 -31 -112 -69 -26 -27 -48 -57 -48 -67 0 -9 -5 -22 -12 -29 -17 -17 -16 -140 1 -182 30 -71 70 -115 140 -153 30 -17 57 -20 171 -20 122 0 139 2 180 23 107 55 150 125 150 245 0 88 -19 134 -79 194 -76 76 -252 102 -391 58z m275 -57 c87 -40 124 -120 110 -243 -7 -58 -11 -65 -56 -108 -53 -50 -84 -60 -189 -61 -79 0 -120 11 -162 44 -60 47 -78 85 -78 166 0 53 5 82 21 111 23 46 36 58 93 88 57 30 197 32 261 3z"/> <path d="M1674 791 c-153 -37 -205 -164 -100 -241 30 -22 106 -38 227 -50 157 -15 203 -39 203 -108 0 -26 -6 -39 -24 -51 -85 -57 -286 -53 -355 7 -14 12 -25 28 -25 35 0 22 -36 49 -62 45 -20 -3 -23 -8 -21 -42 3 -48 30 -79 93 -108 39 -18 65 -21 195 -21 134 -1 155 1 197 21 66 31 88 63 88 126 -1 56 -16 82 -65 108 -43 23 -163 48 -236 49 -131 1 -207 52 -179 119 19 46 63 60 185 60 92 0 113 -3 141 -21 19 -11 34 -28 34 -38 0 -26 37 -61 65 -61 31 0 36 10 28 50 -15 78 -125 130 -273 129 -47 -1 -99 -4 -116 -8z"/> <path d="M2685 782 c-60 -17 -144 -68 -145 -88 0 -5 -5 -15 -12 -22 -19 -19 -38 -84 -38 -132 0 -104 50 -189 135 -230 55 -27 175 -40 255 -28 67 10 140 41 140 58 0 6 9 10 20 10 18 0 19 -5 14 -62 -8 -97 -11 -104 -58 -143 l-44 -36 -126 -1 c-148 -1 -177 9 -220 79 -22 37 -30 43 -49 38 -35 -11 -38 -19 -23 -56 18 -43 55 -78 104 -98 56 -22 295 -27 324 -7 12 9 31 16 42 16 35 0 100 64 119 116 15 43 17 82 15 314 l-3 265 -28 3 c-34 4 -59 -15 -52 -39 10 -30 -15 -32 -45 -4 -63 61 -202 80 -325 47z m265 -67 c82 -42 107 -96 102 -221 -2 -34 -10 -51 -47 -92 -26 -29 -56 -52 -72 -55 -16 -3 -44 -10 -63 -15 -33 -8 -92 -3 -165 14 -75 18 -135 99 -135 183 0 132 90 209 248 210 69 1 91 -3 132 -24z"/> <path d="M3405 782 c-22 -9 -51 -29 -63 -44 -29 -34 -46 -36 -38 -4 7 29 -14 49 -46 44 l-23 -3 0 -255 0 -255 23 -3 c45 -7 49 7 54 191 4 170 5 174 31 209 35 45 109 78 177 78 50 0 51 1 48 28 -3 26 -5 27 -63 29 -37 1 -76 -5 -100 -15z"/> <path d="M3775 785 c-16 -8 -42 -16 -57 -19 -37 -8 -118 -87 -136 -133 -23 -58 -27 -159 -8 -188 9 -13 16 -31 16 -39 0 -24 84 -103 136 -126 41 -19 68 -23 169 -24 107 -1 125 2 169 23 102 50 174 161 105 161 -23 0 -69 -28 -69 -42 0 -5 -16 -24 -36 -42 -72 -66 -250 -72 -331 -10 -48 36 -85 96 -81 130 l3 28 260 -1 c143 0 270 3 283 8 27 10 28 34 5 102 -26 75 -93 138 -173 165 -75 26 -207 29 -255 7z m245 -66 c51 -27 110 -97 110 -133 l0 -26 -240 0 -240 0 0 24 c0 13 7 29 15 36 8 7 15 18 15 26 0 16 50 64 66 64 6 0 17 7 24 15 10 11 36 15 111 15 81 0 106 -4 139 -21z"/> </g> </svg> 