 <svg  version="1.0" xmlns="http://www.w3.org/2000/svg"  width="300.000000pt" height="56.000000pt" viewBox="0 0 300.000000 56.000000"  preserveAspectRatio="xMidYMid meet">  <g transform="translate(0.000000,56.000000) scale(0.100000,-0.100000)" fill="#ffffff" stroke="none"> <path d="M113 540 c-57 -25 -83 -69 -83 -138 0 -87 41 -118 213 -162 68 -18 97 -44 97 -86 0 -96 -153 -113 -266 -29 -19 14 -22 13 -42 -15 l-22 -30 40 -25 c161 -102 370 -44 370 103 0 86 -38 120 -191 166 -94 28 -119 48 -119 93 0 72 106 98 204 49 l46 -23 21 28 20 28 -26 17 c-71 47 -189 58 -262 24z"/> <path d="M500 280 l0 -270 200 0 200 0 0 35 0 35 -160 0 -160 0 0 85 0 85 140 0 140 0 0 35 0 35 -140 0 -140 0 0 85 0 85 160 0 160 0 0 30 0 30 -200 0 -200 0 0 -270z"/> <path d="M980 280 l0 -270 40 0 40 0 0 208 1 207 27 -31 c15 -16 89 -110 165 -207 131 -169 139 -177 172 -177 l35 0 0 270 0 270 -40 0 -40 0 -2 -199 -3 -200 -155 199 -155 200 -42 0 -43 0 0 -270z"/> <path d="M1522 518 l3 -33 88 -3 87 -3 0 -234 0 -235 40 0 40 0 0 235 0 235 90 0 90 0 0 35 0 35 -221 0 -220 0 3 -32z"/> <path d="M2030 281 l0 -271 40 0 40 0 0 100 0 100 68 0 69 0 68 -96 c37 -53 73 -98 80 -101 7 -2 29 -3 48 -1 l35 3 -72 100 -73 100 45 25 c59 33 84 68 89 127 7 63 -14 112 -63 149 -37 29 -38 29 -206 32 l-168 3 0 -270z m317 179 c23 -14 34 -29 39 -56 16 -84 -31 -123 -152 -130 -127 -6 -124 -9 -124 107 l0 99 103 0 c83 0 108 -4 134 -20z"/> <path d="M2496 538 c4 -7 52 -79 106 -160 l98 -148 0 -110 0 -110 40 0 40 0 0 108 0 107 105 157 c58 87 105 160 105 163 0 3 -19 5 -42 5 l-43 0 -80 -126 c-92 -144 -72 -146 -178 20 l-67 106 -46 0 c-33 0 -43 -3 -38 -12z"/> </g> </svg> 