<svg xmlns="http://www.w3.org/2000/svg" viewBox="0 13.260000228881836 165.6300048828125 37.66999816894531" data-asc="1.00537109375"><g fill="#ffffff"><g fill="#ffffff" transform="translate(0, 0)"><path d="M27.73 50.27L21.75 50.27L4.52 17.75L4.52 50.27L0 50.27L0 13.92L7.50 13.92L23.22 43.60L23.22 13.92L27.73 13.92L27.73 50.27ZM59.86 37.11L39.77 37.11Q39.77 39.62 40.53 41.49Q41.28 43.36 42.60 44.56Q43.87 45.73 45.62 46.31Q47.36 46.90 49.46 46.90Q52.25 46.90 55.07 45.79Q57.89 44.68 59.08 43.60L59.33 43.60L59.33 48.61Q57.01 49.58 54.59 50.24Q52.17 50.90 49.51 50.90Q42.72 50.90 38.92 47.23Q35.11 43.55 35.11 36.79Q35.11 30.10 38.76 26.17Q42.41 22.24 48.36 22.24Q53.88 22.24 56.87 25.46Q59.86 28.69 59.86 34.62L59.86 37.11M55.40 33.59Q55.37 29.98 53.58 28.00Q51.78 26.03 48.12 26.03Q44.43 26.03 42.25 28.20Q40.06 30.37 39.77 33.59L55.40 33.59ZM90.43 50.27L84.64 50.27L76.90 39.79L69.12 50.27L63.77 50.27L74.41 36.67L63.87 23.00L69.65 23.00L77.34 33.30L85.06 23.00L90.43 23.00L79.71 36.43L90.43 50.27ZM110.57 50.02Q109.28 50.37 107.75 50.59Q106.23 50.81 105.03 50.81Q100.85 50.81 98.68 48.56Q96.51 46.31 96.51 41.36L96.51 26.86L93.41 26.86L93.41 23.00L96.51 23.00L96.51 15.16L101.10 15.16L101.10 23.00L110.57 23.00L110.57 26.86L101.10 26.86L101.10 39.28Q101.10 41.43 101.20 42.64Q101.29 43.85 101.88 44.90Q102.42 45.87 103.36 46.33Q104.30 46.78 106.23 46.78Q107.35 46.78 108.57 46.45Q109.79 46.12 110.33 45.90L110.57 45.90L110.57 50.02ZM129.81 40.82Q129.81 45.61 126.89 48.19Q123.97 50.78 119.07 50.78Q117.90 50.78 115.94 50.57Q113.99 50.37 112.67 50.07L112.67 45.56L112.94 45.56Q113.94 45.90 115.41 46.26Q116.87 46.63 118.41 46.63Q120.65 46.63 121.98 46.12Q123.32 45.61 123.95 44.65Q124.61 43.68 124.79 42.26Q124.98 40.84 124.98 38.99L124.98 17.77L117.29 17.77L117.29 13.92L129.81 13.92L129.81 40.82ZM165.63 39.89Q165.63 42.02 164.64 44.09Q163.65 46.17 161.87 47.61Q159.91 49.17 157.31 50.05Q154.71 50.93 151.05 50.93Q147.12 50.93 143.98 50.20Q140.84 49.46 137.60 48.02L137.60 41.97L137.94 41.97Q140.70 44.26 144.31 45.51Q147.92 46.75 151.10 46.75Q155.59 46.75 158.09 45.07Q160.60 43.38 160.60 40.58Q160.60 38.16 159.41 37.01Q158.23 35.86 155.81 35.23Q153.98 34.74 151.84 34.42Q149.71 34.11 147.31 33.62Q142.48 32.59 140.15 30.11Q137.82 27.64 137.82 23.66Q137.82 19.09 141.67 16.17Q145.53 13.26 151.46 13.26Q155.30 13.26 158.50 13.99Q161.69 14.72 164.16 15.80L164.16 21.51L163.82 21.51Q161.74 19.75 158.36 18.59Q154.98 17.43 151.44 17.43Q147.56 17.43 145.20 19.04Q142.85 20.65 142.85 23.19Q142.85 25.46 144.02 26.76Q145.19 28.05 148.14 28.74Q149.71 29.08 152.59 29.57Q155.47 30.05 157.47 30.57Q161.52 31.64 163.57 33.81Q165.63 35.99 165.63 39.89Z"/></g></g></svg>