 <svg  version="1.0" xmlns="http://www.w3.org/2000/svg"  width="116.000000pt" height="117.000000pt" viewBox="0 0 116.000000 117.000000"  preserveAspectRatio="xMidYMid meet">  <g transform="translate(0.000000,117.000000) scale(0.100000,-0.100000)" fill="#589abb" stroke="none"> <path d="M777 1154 c-4 -4 -58 -9 -120 -10 -76 -1 -125 -7 -153 -18 -37 -15 -46 -15 -99 -1 -33 8 -91 15 -131 15 -96 0 -165 -35 -208 -104 -54 -87 -47 -255 21 -471 29 -92 82 -202 109 -227 43 -38 113 -42 135 -6 4 6 14 3 27 -10 33 -33 124 -41 183 -17 14 5 17 -6 21 -87 8 -172 60 -234 174 -210 30 6 68 20 83 32 38 26 68 91 76 160 3 30 8 74 11 96 l5 41 69 5 c54 4 80 12 110 32 50 33 69 68 49 92 -11 14 -26 15 -81 11 -38 -3 -68 -3 -68 1 0 4 9 21 19 38 67 110 131 311 131 412 0 94 -47 155 -155 203 -49 22 -194 38 -208 23z m219 -54 c38 -19 75 -46 91 -67 26 -34 28 -44 27 -117 -2 -100 -36 -211 -106 -349 -28 -54 -47 -101 -43 -105 4 -4 40 -6 81 -4 68 2 74 0 74 -18 0 -33 -80 -72 -159 -78 l-68 -4 -12 -107 c-21 -174 -60 -225 -172 -226 -98 0 -123 40 -134 211 l-7 112 -45 -20 c-66 -29 -163 -10 -163 33 0 10 30 24 72 33 15 4 37 16 48 28 l21 22 -38 14 -38 13 -63 -71 c-65 -72 -89 -83 -131 -60 -77 41 -188 385 -179 558 4 94 28 145 87 187 36 25 54 30 117 33 48 3 101 -2 148 -13 69 -16 75 -16 106 0 24 13 57 17 119 17 47 -1 102 3 121 8 67 18 177 4 246 -30z m-536 -669 c0 -5 -10 -11 -22 -15 -36 -9 -41 -7 -28 9 13 16 50 21 50 6z"/> <path d="M764 1098 c64 -43 123 -101 155 -152 l36 -59 -1 -173 c0 -122 -3 -177 -12 -186 -15 -15 -16 -28 -2 -28 12 0 92 164 121 250 13 39 24 100 27 153 l5 88 -34 36 c-59 60 -101 76 -214 80 -83 3 -97 1 -81 -9z"/> <path d="M175 1076 c-76 -37 -100 -85 -99 -201 0 -119 61 -351 117 -449 26 -46 67 -79 88 -71 8 3 39 33 68 66 49 55 52 61 37 77 -39 44 -44 80 -37 252 8 173 19 217 71 289 l20 29 -33 11 c-17 7 -66 14 -107 17 -66 5 -81 2 -125 -20z"/> <path d="M520 1084 c-70 -30 -109 -87 -134 -194 -13 -55 -13 -61 1 -56 99 38 164 24 182 -41 20 -72 13 -171 -18 -250 -25 -64 -27 -73 -12 -73 10 0 26 -6 37 -14 17 -13 20 -31 24 -173 7 -178 17 -213 71 -232 42 -15 103 2 139 37 29 29 44 100 57 266 5 65 10 84 29 101 l22 20 -44 75 c-87 148 -106 239 -59 285 18 19 35 25 70 25 25 0 45 3 45 6 0 22 -68 120 -107 153 -82 73 -218 102 -303 65z"/> <path d="M860 831 c-61 -17 -56 -93 15 -229 49 -92 53 -83 52 101 -1 151 1 147 -67 128z m35 -31 c0 -18 -33 -26 -48 -11 -9 9 -8 14 3 21 21 14 45 8 45 -10z"/> <path d="M417 812 l-38 -17 -5 -109 c-4 -97 -2 -112 17 -142 25 -41 56 -64 85 -64 17 0 27 13 47 63 34 84 40 134 28 203 -16 85 -52 103 -134 66z m102 -15 c14 -17 4 -27 -25 -27 -21 0 -39 22 -27 34 11 11 40 6 52 -7z"/> <path d="M917 439 c-26 -15 -21 -46 9 -53 30 -8 89 2 126 20 45 23 39 30 -21 26 -32 -2 -67 0 -77 6 -13 7 -26 7 -37 1z"/> <path d="M506 415 c-18 -27 -40 -39 -90 -50 -43 -9 -14 -25 46 -25 56 0 111 38 106 74 -5 32 -41 32 -62 1z"/> </g> </svg> 