<svg xmlns="http://www.w3.org/2000/svg" viewBox="0 13.260000228881836 188.25999450683594 37.769996643066406" data-asc="1.00537109375"><g fill="#ffffff"><g fill="#ffffff" transform="translate(0, 0)"><path d="M30.08 50.27L23.80 50.27L11.65 35.82L4.83 35.82L4.83 50.27L0 50.27L0 13.92L10.18 13.92Q13.48 13.92 15.67 14.34Q17.87 14.77 19.63 15.87Q21.61 17.11 22.72 19.01Q23.83 20.90 23.83 23.80Q23.83 27.73 21.85 30.38Q19.87 33.03 16.41 34.38L30.08 50.27M18.77 24.15Q18.77 22.58 18.23 21.37Q17.68 20.17 16.41 19.34Q15.36 18.63 13.92 18.35Q12.48 18.07 10.52 18.07L4.83 18.07L4.83 31.79L9.72 31.79Q12.01 31.79 13.72 31.38Q15.43 30.98 16.63 29.88Q17.72 28.86 18.25 27.53Q18.77 26.20 18.77 24.15ZM56.01 37.11L35.91 37.11Q35.91 39.62 36.67 41.49Q37.43 43.36 38.75 44.56Q40.01 45.73 41.76 46.31Q43.51 46.90 45.61 46.90Q48.39 46.90 51.21 45.79Q54.03 44.68 55.22 43.60L55.47 43.60L55.47 48.61Q53.15 49.58 50.73 50.24Q48.32 50.90 45.65 50.90Q38.87 50.90 35.06 47.23Q31.25 43.55 31.25 36.79Q31.25 30.10 34.90 26.17Q38.55 22.24 44.51 22.24Q50.02 22.24 53.02 25.46Q56.01 28.69 56.01 34.62L56.01 37.11M51.54 33.59Q51.51 29.98 49.72 28.00Q47.92 26.03 44.26 26.03Q40.58 26.03 38.39 28.20Q36.21 30.37 35.91 33.59L51.54 33.59ZM84.16 50.27L79.59 50.27L79.59 47.36Q78.98 47.78 77.94 48.52Q76.90 49.27 75.93 49.71Q74.78 50.27 73.29 50.65Q71.80 51.03 69.80 51.03Q66.11 51.03 63.55 48.58Q60.99 46.14 60.99 42.36Q60.99 39.26 62.32 37.34Q63.65 35.42 66.11 34.33Q68.60 33.23 72.09 32.84Q75.59 32.45 79.59 32.25L79.59 31.54Q79.59 29.98 79.04 28.96Q78.49 27.93 77.47 27.34Q76.49 26.78 75.12 26.59Q73.75 26.39 72.27 26.39Q70.46 26.39 68.24 26.87Q66.02 27.34 63.65 28.25L63.40 28.25L63.40 23.58Q64.75 23.22 67.29 22.78Q69.82 22.34 72.29 22.34Q75.17 22.34 77.31 22.81Q79.44 23.29 81.01 24.44Q82.54 25.56 83.35 27.34Q84.16 29.13 84.16 31.76L84.16 50.27M79.59 43.55L79.59 35.96Q77.49 36.08 74.65 36.33Q71.80 36.57 70.14 37.04Q68.16 37.60 66.94 38.78Q65.72 39.97 65.72 42.04Q65.72 44.38 67.14 45.57Q68.55 46.75 71.46 46.75Q73.88 46.75 75.88 45.81Q77.88 44.87 79.59 43.55ZM113.16 48.56Q110.86 49.66 108.80 50.27Q106.74 50.88 104.42 50.88Q101.46 50.88 99.00 50.01Q96.53 49.15 94.78 47.39Q92.99 45.63 92.02 42.94Q91.04 40.26 91.04 36.67Q91.04 29.98 94.71 26.17Q98.39 22.36 104.42 22.36Q106.76 22.36 109.02 23.02Q111.28 23.68 113.16 24.63L113.16 29.74L112.92 29.74Q110.82 28.10 108.58 27.22Q106.35 26.34 104.22 26.34Q100.32 26.34 98.06 28.97Q95.80 31.59 95.80 36.67Q95.80 41.60 98.01 44.25Q100.22 46.90 104.22 46.90Q105.62 46.90 107.06 46.53Q108.50 46.17 109.64 45.58Q110.64 45.07 111.52 44.49Q112.40 43.92 112.92 43.51L113.16 43.51L113.16 48.56ZM133.20 50.02Q131.91 50.37 130.38 50.59Q128.86 50.81 127.66 50.81Q123.49 50.81 121.31 48.56Q119.14 46.31 119.14 41.36L119.14 26.86L116.04 26.86L116.04 23.00L119.14 23.00L119.14 15.16L123.73 15.16L123.73 23.00L133.20 23.00L133.20 26.86L123.73 26.86L123.73 39.28Q123.73 41.43 123.83 42.64Q123.93 43.85 124.51 44.90Q125.05 45.87 125.99 46.33Q126.93 46.78 128.86 46.78Q129.98 46.78 131.20 46.45Q132.42 46.12 132.96 45.90L133.20 45.90L133.20 50.02ZM152.44 40.82Q152.44 45.61 149.52 48.19Q146.61 50.78 141.70 50.78Q140.53 50.78 138.57 50.57Q136.62 50.37 135.30 50.07L135.30 45.56L135.57 45.56Q136.57 45.90 138.04 46.26Q139.50 46.63 141.04 46.63Q143.29 46.63 144.62 46.12Q145.95 45.61 146.58 44.65Q147.24 43.68 147.42 42.26Q147.61 40.84 147.61 38.99L147.61 17.77L139.92 17.77L139.92 13.92L152.44 13.92L152.44 40.82ZM188.26 39.89Q188.26 42.02 187.27 44.09Q186.28 46.17 184.50 47.61Q182.54 49.17 179.94 50.05Q177.34 50.93 173.68 50.93Q169.75 50.93 166.61 50.20Q163.48 49.46 160.23 48.02L160.23 41.97L160.57 41.97Q163.33 44.26 166.94 45.51Q170.56 46.75 173.73 46.75Q178.22 46.75 180.73 45.07Q183.23 43.38 183.23 40.58Q183.23 38.16 182.04 37.01Q180.86 35.86 178.44 35.23Q176.61 34.74 174.48 34.42Q172.34 34.11 169.95 33.62Q165.11 32.59 162.78 30.11Q160.45 27.64 160.45 23.66Q160.45 19.09 164.31 16.17Q168.16 13.26 174.10 13.26Q177.93 13.26 181.13 13.99Q184.33 14.72 186.79 15.80L186.79 21.51L186.45 21.51Q184.38 19.75 180.99 18.59Q177.61 17.43 174.07 17.43Q170.19 17.43 167.83 19.04Q165.48 20.65 165.48 23.19Q165.48 25.46 166.65 26.76Q167.82 28.05 170.78 28.74Q172.34 29.08 175.22 29.57Q178.10 30.05 180.10 30.57Q184.16 31.64 186.21 33.81Q188.26 35.99 188.26 39.89Z"/></g></g></svg>