<svg xmlns="http://www.w3.org/2000/svg" viewBox="0 12.279999732971191 203.86000061035156 38.75" data-asc="1.00537109375"><g fill="#ffffff"><g fill="#ffffff" transform="translate(0, 0)"><path d="M30.81 18.21L17.82 18.21L17.82 50.27L12.99 50.27L12.99 18.21L0 18.21L0 13.92L30.81 13.92L30.81 18.21ZM50.66 50.27L46.09 50.27L46.09 47.36Q45.48 47.78 44.45 48.52Q43.41 49.27 42.43 49.71Q41.28 50.27 39.79 50.65Q38.31 51.03 36.30 51.03Q32.62 51.03 30.05 48.58Q27.49 46.14 27.49 42.36Q27.49 39.26 28.82 37.34Q30.15 35.42 32.62 34.33Q35.11 33.23 38.60 32.84Q42.09 32.45 46.09 32.25L46.09 31.54Q46.09 29.98 45.54 28.96Q45.00 27.93 43.97 27.34Q42.99 26.78 41.63 26.59Q40.26 26.39 38.77 26.39Q36.96 26.39 34.74 26.87Q32.52 27.34 30.15 28.25L29.91 28.25L29.91 23.58Q31.25 23.22 33.79 22.78Q36.33 22.34 38.79 22.34Q41.67 22.34 43.81 22.81Q45.95 23.29 47.51 24.44Q49.05 25.56 49.85 27.34Q50.66 29.13 50.66 31.76L50.66 50.27M46.09 43.55L46.09 35.96Q43.99 36.08 41.15 36.33Q38.31 36.57 36.65 37.04Q34.67 37.60 33.45 38.78Q32.23 39.97 32.23 42.04Q32.23 44.38 33.64 45.57Q35.06 46.75 37.96 46.75Q40.38 46.75 42.38 45.81Q44.38 44.87 46.09 43.55ZM64.43 18.43L59.25 18.43L59.25 13.67L64.43 13.67L64.43 18.43M64.14 50.27L59.55 50.27L59.55 23.00L64.14 23.00L64.14 50.27ZM77.86 50.27L73.27 50.27L73.27 12.28L77.86 12.28L77.86 50.27ZM129.61 13.92L120.17 50.27L114.72 50.27L107.08 20.09L99.61 50.27L94.29 50.27L84.67 13.92L89.62 13.92L97.27 44.14L104.79 13.92L109.69 13.92L117.29 44.43L124.88 13.92L129.61 13.92ZM141.31 18.43L136.13 18.43L136.13 13.67L141.31 13.67L141.31 18.43M141.02 50.27L136.43 50.27L136.43 23.00L141.02 23.00L141.02 50.27ZM172.90 50.27L168.31 50.27L168.31 34.74Q168.31 32.86 168.09 31.21Q167.87 29.57 167.29 28.64Q166.67 27.61 165.53 27.11Q164.38 26.61 162.55 26.61Q160.67 26.61 158.62 27.54Q156.57 28.47 154.69 29.91L154.69 50.27L150.10 50.27L150.10 23.00L154.69 23.00L154.69 26.03Q156.84 24.24 159.13 23.24Q161.43 22.24 163.84 22.24Q168.26 22.24 170.58 24.90Q172.90 27.56 172.90 32.57L172.90 50.27ZM203.86 50.27L199.27 50.27L199.27 47.41Q197.29 49.12 195.14 50.07Q192.99 51.03 190.48 51.03Q185.60 51.03 182.73 47.27Q179.86 43.51 179.86 36.84Q179.86 33.37 180.85 30.66Q181.84 27.95 183.52 26.05Q185.18 24.19 187.39 23.22Q189.60 22.24 191.97 22.24Q194.12 22.24 195.78 22.69Q197.44 23.14 199.27 24.10L199.27 12.28L203.86 12.28L203.86 50.27M199.27 43.55L199.27 27.91Q197.41 27.08 195.95 26.76Q194.48 26.44 192.75 26.44Q188.89 26.44 186.74 29.13Q184.59 31.81 184.59 36.74Q184.59 41.60 186.25 44.13Q187.92 46.66 191.58 46.66Q193.53 46.66 195.53 45.79Q197.53 44.92 199.27 43.55Z"/></g></g></svg>