<svg xmlns="http://www.w3.org/2000/svg" viewBox="0 9.470000267028809 82.95999908447266 36.37999725341797" data-asc="0.9052734375"><g fill="#ffffff"><g fill="#ffffff" transform="translate(0, 0)"><path d="M13.87 45.26L0 9.47L5.13 9.47L14.43 35.47Q15.55 38.60 16.31 41.33Q17.14 38.40 18.24 35.47L27.91 9.47L32.74 9.47L18.73 45.26L13.87 45.26ZM35.55 14.53L35.55 9.47L39.94 9.47L39.94 14.53L35.55 14.53M35.55 45.26L35.55 19.34L39.94 19.34L39.94 45.26L35.55 45.26ZM56.23 41.33L56.86 45.21Q55.00 45.61 53.54 45.61Q51.15 45.61 49.83 44.85Q48.51 44.09 47.97 42.86Q47.44 41.63 47.44 37.67L47.44 22.75L44.21 22.75L44.21 19.34L47.44 19.34L47.44 12.92L51.81 10.28L51.81 19.34L56.23 19.34L56.23 22.75L51.81 22.75L51.81 37.92Q51.81 39.79 52.04 40.33Q52.27 40.87 52.80 41.19Q53.32 41.50 54.30 41.50Q55.03 41.50 56.23 41.33ZM78.27 36.91L82.81 37.48Q81.74 41.46 78.83 43.65Q75.93 45.85 71.41 45.85Q65.72 45.85 62.39 42.35Q59.06 38.84 59.06 32.52Q59.06 25.98 62.43 22.36Q65.80 18.75 71.17 18.75Q76.37 18.75 79.66 22.29Q82.96 25.83 82.96 32.25Q82.96 32.64 82.93 33.42L63.60 33.42Q63.84 37.70 66.02 39.97Q68.19 42.24 71.44 42.24Q73.85 42.24 75.56 40.97Q77.27 39.70 78.27 36.91M63.84 29.81L78.32 29.81Q78.03 26.54 76.66 24.90Q74.56 22.36 71.22 22.36Q68.19 22.36 66.13 24.39Q64.06 26.42 63.84 29.81Z"/></g></g></svg>