<svg xmlns="http://www.w3.org/2000/svg" viewBox="0 8.859999656677246 197.8300018310547 37.0099983215332" data-asc="0.9052734375"><g fill="#ffffff"><g fill="#ffffff" transform="translate(0, 0)"><path d="M13.87 45.26L0 9.47L5.13 9.47L14.43 35.47Q15.55 38.60 16.31 41.33Q17.14 38.40 18.24 35.47L27.91 9.47L32.74 9.47L18.73 45.26L13.87 45.26ZM35.38 33.76L39.84 33.37Q40.16 36.06 41.32 37.78Q42.48 39.50 44.92 40.56Q47.36 41.63 50.42 41.63Q53.13 41.63 55.20 40.82Q57.28 40.01 58.29 38.61Q59.30 37.21 59.30 35.55Q59.30 33.86 58.33 32.60Q57.35 31.35 55.10 30.49Q53.66 29.93 48.73 28.75Q43.80 27.56 41.82 26.51Q39.26 25.17 38.00 23.18Q36.74 21.19 36.74 18.73Q36.74 16.02 38.28 13.66Q39.82 11.30 42.77 10.08Q45.73 8.86 49.34 8.86Q53.32 8.86 56.36 10.14Q59.40 11.43 61.04 13.92Q62.67 16.41 62.79 19.56L58.25 19.90Q57.89 16.50 55.77 14.77Q53.66 13.04 49.54 13.04Q45.24 13.04 43.27 14.61Q41.31 16.19 41.31 18.41Q41.31 20.34 42.70 21.58Q44.07 22.83 49.84 24.13Q55.62 25.44 57.76 26.42Q60.89 27.86 62.38 30.07Q63.87 32.28 63.87 35.16Q63.87 38.01 62.23 40.54Q60.60 43.07 57.53 44.47Q54.47 45.87 50.63 45.87Q45.78 45.87 42.49 44.46Q39.21 43.04 37.34 40.20Q35.47 37.35 35.38 33.76ZM109.77 32.71L114.50 33.91Q113.01 39.75 109.14 42.81Q105.27 45.87 99.68 45.87Q93.90 45.87 90.27 43.52Q86.65 41.16 84.75 36.69Q82.86 32.23 82.86 27.10Q82.86 21.51 85.00 17.35Q87.13 13.18 91.08 11.02Q95.02 8.86 99.76 8.86Q105.13 8.86 108.79 11.60Q112.45 14.33 113.89 19.29L109.23 20.39Q107.98 16.48 105.62 14.70Q103.25 12.92 99.66 12.92Q95.53 12.92 92.76 14.89Q89.99 16.87 88.87 20.20Q87.74 23.54 87.74 27.08Q87.74 31.64 89.07 35.05Q90.41 38.45 93.21 40.14Q96.02 41.82 99.29 41.82Q103.27 41.82 106.03 39.53Q108.79 37.23 109.77 32.71ZM118.14 32.30Q118.14 25.10 122.14 21.63Q125.49 18.75 130.30 18.75Q135.64 18.75 139.04 22.25Q142.43 25.76 142.43 31.93Q142.43 36.94 140.93 39.81Q139.43 42.68 136.56 44.26Q133.69 45.85 130.30 45.85Q124.85 45.85 121.50 42.36Q118.14 38.87 118.14 32.30M122.66 32.30Q122.66 37.28 124.83 39.76Q127.00 42.24 130.30 42.24Q133.57 42.24 135.74 39.75Q137.92 37.26 137.92 32.15Q137.92 27.34 135.73 24.87Q133.54 22.39 130.30 22.39Q127.00 22.39 124.83 24.85Q122.66 27.32 122.66 32.30ZM164.40 45.26L164.40 41.99Q161.94 45.85 157.15 45.85Q154.05 45.85 151.45 44.14Q148.85 42.43 147.42 39.37Q146.00 36.30 146.00 32.32Q146.00 28.44 147.29 25.28Q148.58 22.12 151.17 20.43Q153.76 18.75 156.96 18.75Q159.30 18.75 161.13 19.74Q162.96 20.73 164.11 22.31L164.11 9.47L168.48 9.47L168.48 45.26L164.40 45.26M150.51 32.32Q150.51 37.30 152.61 39.77Q154.71 42.24 157.57 42.24Q160.45 42.24 162.46 39.88Q164.48 37.52 164.48 32.69Q164.48 27.37 162.43 24.88Q160.38 22.39 157.37 22.39Q154.44 22.39 152.48 24.78Q150.51 27.17 150.51 32.32ZM193.14 36.91L197.68 37.48Q196.61 41.46 193.70 43.65Q190.80 45.85 186.28 45.85Q180.59 45.85 177.26 42.35Q173.93 38.84 173.93 32.52Q173.93 25.98 177.29 22.36Q180.66 18.75 186.04 18.75Q191.24 18.75 194.53 22.29Q197.83 25.83 197.83 32.25Q197.83 32.64 197.80 33.42L178.47 33.42Q178.71 37.70 180.88 39.97Q183.06 42.24 186.30 42.24Q188.72 42.24 190.43 40.97Q192.14 39.70 193.14 36.91M178.71 29.81L193.19 29.81Q192.90 26.54 191.53 24.90Q189.43 22.36 186.08 22.36Q183.06 22.36 180.99 24.39Q178.93 26.42 178.71 29.81Z"/></g></g></svg>